<?xml version="1.0" encoding="utf-8"?>
<!-- Generator: Adobe Illustrator 27.2.0, SVG Export Plug-In . SVG Version: 6.00 Build 0)  -->
<svg version="1.1" id="Layer_1" xmlns="http://www.w3.org/2000/svg" xmlns:xlink="http://www.w3.org/1999/xlink" x="0px" y="0px"
	 viewBox="0 0 352.2 202.6" style="enable-background:new 0 0 352.2 202.6;" xml:space="preserve">
<style type="text/css">
	.st0{fill:#D1C5F4;}
	.st1{fill:#8A6FE8;}
	.st2{fill:url(#SVGID_1_);}
	.st3{fill:#522CD5;}
	.st4{fill:url(#SVGID_00000150824495750558874700000018264553209910128062_);}
	.st5{fill:url(#SVGID_00000027566232178909626360000013757839209321695411_);}
	.st6{fill:url(#SVGID_00000158011210373281010980000001099232421076232601_);}
	.st7{fill:url(#SVGID_00000073722825012623047800000014214973807879414701_);}
	.st8{fill:#D8CFF7;}
	.st9{fill:#512BD4;}
	.st10{fill:#FFFFFF;}
	.st11{fill:url(#SVGID_00000181085327785076258300000012577800456732987274_);}
	.st12{fill:#A08BE8;}
	.st13{fill:#8065E0;}
	.st14{fill:url(#SVGID_00000047061810469769046370000005754270689247274405_);}
	.st15{fill:url(#SVGID_00000182496230360808911420000015293724105624540809_);}
	.st16{fill:url(#SVGID_00000163778190911257109340000010727780112777670328_);}
	.st17{fill:url(#SVGID_00000053539455043658727180000017173855018617023873_);}
	.st18{fill:url(#SVGID_00000011005952042439934230000017690025943431240376_);}
	.st19{fill:url(#SVGID_00000009547727946691209470000000178339932726785950_);}
	.st20{fill:#621EE5;}
	.st21{clip-path:url(#SVGID_00000050664658860553753000000004332426254155960215_);}
	.st22{clip-path:url(#SVGID_00000152254036038693975710000011054118127030381702_);}
	.st23{fill:#FFFFFF;filter:url(#Adobe_OpacityMaskFilter);}
	.st24{mask:url(#mask0_00000005949613327822921060000017673713071587661444_);}
	.st25{fill:#5E438F;}
	.st26{fill:url(#SVGID_00000026141204476535589910000016763683895932817805_);}
	.st27{fill:url(#SVGID_00000008146803369253256640000002341982852813751181_);}
	.st28{fill:url(#SVGID_00000092420211456707995700000014221220362161327761_);}
	.st29{fill:#A179DC;}
	.st30{fill:#280068;}
	.st31{fill:#390091;}
</style>
<g>
	<ellipse class="st0" cx="166.2" cy="193.7" rx="128.6" ry="8.9"/>
	<path class="st1" d="M201.1,109.8c-6.9,1.1-14.3-3.4-22.6-13.4c-1.7-2.1-1.4-5.2,0.6-6.9c2.1-1.7,5.2-1.4,6.9,0.6
		c8.6,10.4,12.9,10.2,14,9.9c3-0.8,5.9-6.6,7.2-14.5c0.5-2.7,3-4.5,5.7-4c2.7,0.5,4.5,3,4,5.7c-1.2,7.2-4.8,19.8-14.4,22.3
		C202.1,109.6,201.6,109.7,201.1,109.8z"/>
	<g>
		
			<linearGradient id="SVGID_1_" gradientUnits="userSpaceOnUse" x1="8037.3555" y1="894.0218" x2="8037.3555" y2="853.6132" gradientTransform="matrix(-0.9787 0.2055 -0.2055 -0.9787 8186.8242 -657.9111)">
			<stop  offset="0.252" style="stop-color:#522CD5"/>
			<stop  offset="0.5558" style="stop-color:#8A6FE8"/>
		</linearGradient>
		<path class="st2" d="M149.4,157.4c0.1-8.3-1.1-25.1-9.7-39.3l-8.4,5.1c7.8,12.8,8.4,27.7,8.2,34.2
			C139.5,158,144.6,158.5,149.4,157.4z"/>
	</g>
	<path class="st3" d="M139.6,157.3l7.8,0l7.2,41.5l-15.6,0.1c-1.2,0-2.1-0.9-2-2.1L139.6,157.3z"/>
	
		<linearGradient id="SVGID_00000149342048800571077570000012754812280878730901_" gradientUnits="userSpaceOnUse" x1="8460.709" y1="53.9919" x2="8434.7285" y2="8.9913" gradientTransform="matrix(-1 4.550830e-03 6.540000e-02 -1.0003 8600.4385 171.7548)">
		<stop  offset="0" style="stop-color:#522CD5"/>
		<stop  offset="0.4397" style="stop-color:#8A6FE8"/>
	</linearGradient>
	<path style="fill:url(#SVGID_00000149342048800571077570000012754812280878730901_);" d="M171.2,187.9c1.3,1.1,1.3,2.6,1.2,4.2
		l-0.3,5c-0.1,0.9-0.8,1.6-1.7,1.6l-16.2,0.1c-1,0-1.8-0.8-1.7-1.8l0.1-5.1c0.1-1.9-0.5-2.6-2-4.3c-2.5-3-9.8-19.4-9.1-30.1l8,0
		C149.9,163.6,158.3,177.8,171.2,187.9z"/>
	
		<radialGradient id="SVGID_00000095311161074496365820000017756591324164079759_" cx="167.1774" cy="29.4693" r="17.0949" gradientTransform="matrix(1 -4.550830e-03 -4.550830e-03 -1 -5.4254 210.9307)" gradientUnits="userSpaceOnUse">
		<stop  offset="3.400000e-02" style="stop-color:#522CD5"/>
		<stop  offset="0.9955" style="stop-color:#8A6FE8"/>
	</radialGradient>
	<path style="fill:url(#SVGID_00000095311161074496365820000017756591324164079759_);" d="M172.4,192.1c0.1-1.1,0.1-2.2-0.4-3.1
		l-20.2,0.1c0.6,0.8,0.8,1.5,0.7,2.7l-0.1,5.1c-0.1,1,0.7,1.8,1.7,1.8l16.2-0.1c0.9,0,1.7-0.7,1.7-1.6L172.4,192.1z"/>
	
		<linearGradient id="SVGID_00000085242116410728399930000005884955725370300322_" gradientUnits="userSpaceOnUse" x1="151.5133" y1="69.2698" x2="151.5133" y2="31.6298" gradientTransform="matrix(1 0 0 -1 0 189.7995)">
		<stop  offset="0.252" style="stop-color:#522CD5"/>
		<stop  offset="0.5558" style="stop-color:#8A6FE8"/>
	</linearGradient>
	<path style="fill:url(#SVGID_00000085242116410728399930000005884955725370300322_);" d="M138,149.9c10.3-5.8,16.6-9,17.2-11.6
		c0.2-0.6-0.1-2.1-2.5-5.8c-2-3.1-4.3-6.5-4.3-6.6l8.2-5.5c0,0,2.4,3.5,4.4,6.6c2.7,4.1,5,8.6,3.8,13.5c-1.6,6.7-5.9,9-21.2,17.6
		L138,149.9z"/>
	
		<radialGradient id="SVGID_00000016060500120247708340000000028871628915110547_" cx="5964.2666" cy="-356.7281" r="52.5665" gradientTransform="matrix(-0.9877 0.1562 -0.1562 -0.9877 5985.1851 -1226.0693)" gradientUnits="userSpaceOnUse">
		<stop  offset="0.4744" style="stop-color:#A08BE8"/>
		<stop  offset="0.8618" style="stop-color:#8065E0"/>
	</radialGradient>
	<path style="fill:url(#SVGID_00000016060500120247708340000000028871628915110547_);" d="M190.3,86.4c1.4-13.8-2.5-24-2.5-24
		l3.1-0.5l0.1-0.1c-8.3-23.6-32.5-38.6-58-34.6C104.1,31.8,84.4,58.9,89,87.6s31.6,48.4,60.4,43.9c22.7-3.6,39.8-21.2,43.7-42.6
		C193.1,88.1,192.9,86.5,190.3,86.4z"/>
	<path class="st8" d="M190.4,98.7l-90,14.2c2.6,3.1,5.5,5.9,8.6,8.3l75.8-12C187,106,188.9,102.4,190.4,98.7z"/>
	
		<rect x="163.3" y="99" transform="matrix(0.9877 -0.1562 0.1562 0.9877 -14.5399 28.151)" class="st9" width="17.1" height="15.1"/>
	<g>
		<path class="st10" d="M166.6,109.3c-0.1,0-0.2,0-0.3-0.1c-0.1-0.1-0.1-0.1-0.2-0.3s0-0.2,0.1-0.3c0.1-0.1,0.2-0.1,0.3-0.2
			s0.2,0,0.3,0.1c0.1,0.1,0.1,0.1,0.2,0.3c0,0.1,0,0.2-0.1,0.3C166.8,109.3,166.8,109.3,166.6,109.3z"/>
		<path class="st10" d="M171.1,108.6l-0.7,0.1l-2.4-2.7c-0.1-0.1-0.1-0.1-0.2-0.2h0c0,0.1,0.1,0.3,0.1,0.6l0.4,2.7l-0.6,0.1
			l-0.6-4.1l0.8-0.1l2.3,2.7c0.1,0.1,0.2,0.2,0.2,0.2h0c0-0.1-0.1-0.3-0.1-0.6l-0.4-2.7l0.6-0.1L171.1,108.6z"/>
		<path class="st10" d="M174.3,108.1l-2.3,0.4l-0.6-4.1l2.2-0.3l0.1,0.6l-1.5,0.2l0.2,1.2l1.4-0.2l0.1,0.6l-1.4,0.2l0.2,1.2l1.6-0.2
			L174.3,108.1z"/>
		<path class="st10" d="M176.9,104l-1.2,0.2l0.5,3.6l-0.7,0.1l-0.5-3.6l-1.2,0.2l-0.1-0.6l3-0.5L176.9,104z"/>
	</g>
	
		<radialGradient id="SVGID_00000085960328101916593940000002094022338192635060_" cx="5928.6021" cy="-358.6843" r="54.4758" gradientTransform="matrix(-0.9877 0.1562 -0.1562 -0.9877 5985.1851 -1226.0693)" gradientUnits="userSpaceOnUse">
		<stop  offset="9.330000e-02" style="stop-color:#E1DFDD"/>
		<stop  offset="0.6573" style="stop-color:#FFFFFF"/>
	</radialGradient>
	<path style="fill:url(#SVGID_00000085960328101916593940000002094022338192635060_);" d="M190.4,86.3c1.3-13.6-2.4-23.7-2.5-24
		l-54.1,8.6c0,0-3.5,0.2-3,3.3c0.5,3.1,2,11.9,3.6,21.6c0.3,2,2.1,2.7,3.4,2.5C137.7,98.3,189.4,88.7,190.4,86.3z"/>
	<path class="st12" d="M158.1,91.5c0,0,7.3-7.9,8.7-9.4s2.8-1.8,4.5-0.7s11,6.2,11,6.2L158.1,91.5z"/>
	<path class="st9" d="M193,89.6c0,0,1.1-3.1-2.6-3.3c0,0-53.2,8.4-53.2,8.4c-1.2,0.2-2.9-0.3-3.3-1.5c0.1,0.9,0.3,1.7,0.4,2.6
		c0.3,1.8,1.8,2.6,3,2.5c0.1,0,0.2,0,0.4,0l3.6-0.6L193,89.6z"/>
	<ellipse transform="matrix(0.9853 -0.1709 0.1709 0.9853 -11.6316 26.5372)" class="st9" cx="148.3" cy="80.8" rx="4.1" ry="6.9"/>
	<path class="st13" d="M147.7,77.4c0.7-1,1.8-1.5,2.9-1.6c0.8,1.1,1.5,2.6,1.8,4.3c0.2,1.1,0.2,2.1,0.1,3.1
		c-1.2,0.6-2.7,0.5-3.9-0.4C146.9,81.5,146.5,79.1,147.7,77.4z"/>
	
		<linearGradient id="SVGID_00000050651553808883750800000014316293494404538814_" gradientUnits="userSpaceOnUse" x1="-2198.1296" y1="-839.7922" x2="-2198.1296" y2="-891.9513" gradientTransform="matrix(0.9409 -0.3388 -0.3388 -0.9409 1873.6866 -1441.9099)">
		<stop  offset="0.2495" style="stop-color:#967FE6"/>
		<stop  offset="1" style="stop-color:#8A6FE8"/>
	</linearGradient>
	<path style="fill:url(#SVGID_00000050651553808883750800000014316293494404538814_);" d="M92.7,147.4c-0.5-0.7-13.3-17.8-9-35.6
		c2.5-10.3,9.9-18.6,22.2-24.6l4.3,8.8c-9.5,4.6-15.2,10.6-17,18c-3.2,13.4,7.2,27.4,7.3,27.5L92.7,147.4z"/>
	
		<radialGradient id="SVGID_00000116938593875518492890000006859575535251018678_" cx="-860.2684" cy="-380.4331" r="9.6948" gradientTransform="matrix(0.9877 -0.1562 -0.1562 -0.9877 896.1641 -421.4776)" gradientUnits="userSpaceOnUse">
		<stop  offset="0" style="stop-color:#8065E0"/>
		<stop  offset="1" style="stop-color:#512BD4"/>
	</radialGradient>
	<circle style="fill:url(#SVGID_00000116938593875518492890000006859575535251018678_);" cx="108.1" cy="91.6" r="9.7"/>
	<path class="st1" d="M112.4,139.1l-13-6.3c-2.3-1.1-5.1-0.2-6.2,2.2l0,0c-1.1,2.3-0.2,5.1,2.2,6.2l13,6.3c2.3,1.1,5.1,0.2,6.2-2.2
		l0,0C115.7,143.1,114.8,140.3,112.4,139.1z"/>
	<path class="st1" d="M84.4,142.7l-1.8,9.6c-0.4,2.6,1.3,5,3.8,5.4c2.6,0.4,5-1.3,5.4-3.8l1.8-9.8L84.4,142.7z"/>
	<path class="st1" d="M87.7,146.9l3.3,13c0.6,2.5,3.2,4,5.7,3.4s4-3.2,3.4-5.7l-2.4-9.7L87.7,146.9z"/>
	<path class="st1" d="M92.7,144.1l6.2,12c1.2,2.3,4,3.2,6.3,2c2.3-1.2,3.2-4,2-6.3l-6.3-12.2L92.7,144.1z"/>
	
		<radialGradient id="SVGID_00000105427223374569763250000003180051347030893187_" cx="1797.073" cy="1583.6202" r="9.8509" gradientTransform="matrix(0.9493 0.3144 0.3144 -0.9493 -2109.0205 1075.7336)" gradientUnits="userSpaceOnUse">
		<stop  offset="0" style="stop-color:#8065E0"/>
		<stop  offset="1" style="stop-color:#512BD4"/>
	</radialGradient>
	<circle style="fill:url(#SVGID_00000105427223374569763250000003180051347030893187_);" cx="93.8" cy="141.2" r="9.9"/>
	<path class="st1" d="M127.4,25.1l9.7-1.6l-4.4-17.4l-7,1.1L127.4,25.1z"/>
	<path class="st8" d="M132.1,13.4c-3.4,1.5-7.4,0-8.9-3.4s0-7.3,3.4-8.8c3.4-1.5,7.4,0,8.9,3.4C137,8,135.5,11.9,132.1,13.4z"/>
	<path class="st3" d="M124.7,31.7c-0.4,0.1-0.9-0.2-0.9-0.7c-0.2-4.7,3.1-8.8,7.8-9.6c4.8-0.8,9.3,2.2,10.5,6.6
		c0.1,0.4-0.2,0.8-0.6,0.9L124.7,31.7z"/>
	<path class="st3" d="M138.1,149.9l4.3,6.4l-23.8,39l-15.4-22.9c-0.7-1-0.4-2.3,0.7-2.9L138.1,149.9z"/>
	
		<linearGradient id="SVGID_00000048475439433797331350000008784830315878196633_" gradientUnits="userSpaceOnUse" x1="5494.1157" y1="5847.603" x2="5467.6426" y2="5801.7505" gradientTransform="matrix(-0.5578 -0.8299 0.869 -0.4998 -1872.5972 7636.8447)">
		<stop  offset="0" style="stop-color:#522CD5"/>
		<stop  offset="0.4397" style="stop-color:#8A6FE8"/>
	</linearGradient>
	<path style="fill:url(#SVGID_00000048475439433797331350000008784830315878196633_);" d="M131.7,195.1c0,1.7-1.4,2.8-2.9,3.6
		l-4.3,2.5c-0.8,0.4-1.8,0.2-2.3-0.5l-5.4-8.1c-0.6-0.8-0.3-1.9,0.6-2.4l4.4-2.8c1.6-0.9,2.5-1.7,2.5-4c0-13.5,5.2-24.1,15.5-31.2
		l4,5.9C138.6,162,131.4,172.6,131.7,195.1z"/>
	
		<radialGradient id="SVGID_00000090297100159912397600000013831590555377288113_" cx="3542.1084" cy="5821.8569" r="15.839" gradientTransform="matrix(0.5578 0.8299 0.8299 -0.5578 -6673.4131 494.2605)" gradientUnits="userSpaceOnUse">
		<stop  offset="3.400000e-02" style="stop-color:#522CD5"/>
		<stop  offset="0.9955" style="stop-color:#8A6FE8"/>
	</radialGradient>
	<path style="fill:url(#SVGID_00000090297100159912397600000013831590555377288113_);" d="M122.2,200.7c0.5,0.7,1.5,1,2.3,0.5
		l4.3-2.5c0.9-0.5,1.9-1.2,2.4-2.1l-7.5-11.1c-0.4,0.8-1.1,1.3-2.1,1.9l-4.4,2.8c-0.9,0.5-1.1,1.6-0.6,2.4L122.2,200.7z"/>
	<path class="st1" d="M204.2,63.5L203.6,78c-0.1,2.6,1.9,4.8,4.5,4.9l0,0c2.6,0.1,4.8-1.9,4.9-4.5l0.6-14.5c0.1-2.6-1.9-4.8-4.5-4.9
		l0,0C206.5,58.9,204.3,60.9,204.2,63.5z"/>
	<path class="st1" d="M218.7,87.8l9.5-2.2c2.5-0.6,4.1-3.1,3.5-5.7c-0.6-2.5-3.1-4.1-5.7-3.5l-9.7,2.3L218.7,87.8z"/>
	<path class="st1" d="M221.2,83.2l10.7-8.2c2-1.6,2.4-4.6,0.8-6.6c-1.6-2.1-4.5-2.4-6.6-0.8l-7.9,6.1L221.2,83.2z"/>
	<path class="st1" d="M216.6,79.6l8.5-10.4c1.6-2,1.4-5-0.6-6.6c-2-1.7-5-1.4-6.6,0.7l-8.7,10.6L216.6,79.6z"/>
	
		<radialGradient id="SVGID_00000133525007298865848720000001140276311448886679_" cx="3579.2424" cy="5567.9038" r="9.8491" gradientTransform="matrix(0.607 0.7947 0.7947 -0.607 -6380.1255 612.0509)" gradientUnits="userSpaceOnUse">
		<stop  offset="0" style="stop-color:#8065E0"/>
		<stop  offset="1" style="stop-color:#512BD4"/>
	</radialGradient>
	<circle style="fill:url(#SVGID_00000133525007298865848720000001140276311448886679_);" cx="213.6" cy="79.8" r="9.9"/>
	<ellipse transform="matrix(0.9853 -0.1709 0.1709 0.9853 -10.2612 32.0765)" class="st9" cx="181.2" cy="75.6" rx="4.1" ry="6.9"/>
	<path class="st13" d="M180.6,72.2c0.7-1,1.8-1.5,2.9-1.6c0.8,1.1,1.5,2.6,1.8,4.3c0.2,1.1,0.2,2.1,0.1,3.1
		c-1.2,0.6-2.7,0.5-3.9-0.4C179.7,76.3,179.3,73.9,180.6,72.2z"/>
	<path class="st10" d="M67.2,44.3c-0.7,0-1.3-0.6-1.3-1.3c0-0.7,0.6-1.3,1.3-1.3l20.4-0.2c0.8,0,1.3,0.6,1.4,1.3
		c0,0.7-0.6,1.3-1.3,1.3L67.2,44.3C67.2,44.3,67.2,44.3,67.2,44.3z"/>
	<path class="st10" d="M59.7,44.1H14.8c-0.7,0-1.3-0.6-1.3-1.3s0.6-1.3,1.3-1.3h44.8c0.7,0,1.3,0.6,1.3,1.3S60.4,44.1,59.7,44.1z"/>
	<path class="st10" d="M42.1,55.3c-0.7,0-1.3-0.6-1.3-1.3s0.6-1.3,1.3-1.4L74.4,52c0.7,0,1.4,0.6,1.4,1.3s-0.6,1.3-1.3,1.4
		L42.1,55.3C42.1,55.3,42.1,55.3,42.1,55.3z"/>
	<path class="st10" d="M14.7,55.7c-0.7,0-1.3-0.6-1.3-1.3c0-0.7,0.6-1.3,1.3-1.4l19.3-0.3c0.7,0,1.4,0.6,1.4,1.3s-0.6,1.3-1.3,1.4
		L14.7,55.7C14.7,55.7,14.7,55.7,14.7,55.7z"/>
</g>
<g>
	<path class="st20" d="M213.4,151.6c-0.3-0.4-0.8-0.7-1.2-0.9c-0.5-0.2-1-0.3-1.5-0.3c-0.5,0-1,0.1-1.5,0.3
		c-0.5,0.2-0.9,0.5-1.2,0.9c-0.4,0.4-0.6,0.8-0.8,1.3c-0.2,0.5-0.3,1-0.3,1.5c0,0.5,0.1,1,0.3,1.5c0.2,0.5,0.5,0.9,0.8,1.3
		c0.7,0.8,1.7,1.2,2.7,1.1c1,0,2-0.4,2.7-1.1c0.4-0.3,0.7-0.8,0.9-1.2c0.2-0.5,0.3-1,0.3-1.5c0-0.5-0.1-1-0.3-1.5
		C214.1,152.4,213.8,152,213.4,151.6L213.4,151.6z M259.1,142.8c-0.1,2.4,0.1,4.9,0.3,7.3h-0.1c-0.3-0.6-1-1.7-2-3.3l-24.9-39.1
		h-7.6v49.9h5.8v-36.1c0.1-2.3,0-4.6-0.3-6.9h0.2c0.4,1.1,1,2.1,1.6,3.1l25.6,39.8h7.2v-49.9h-5.8V142.8z M304.4,152.1h-20.5v-17.3
		h18v-5.3h-18V113h19.3v-5.3h-25.2v49.9h26.5L304.4,152.1z M308.8,107.7v5.3h14.3v44.6h5.8V113h14.5v-5.3H308.8z M251.8,170
		c-1.5,0.6-2.8,1.5-3.8,2.6c-1.1,1.2-2,2.6-2.6,4.1c-0.6,1.5-0.8,3.2-0.8,4.8c-0.1,3,0.9,6,3,8.2c1,1.1,2.2,1.9,3.6,2.4
		s2.8,0.8,4.3,0.7c2.2,0.1,4.4-0.4,6.3-1.3l0-2.5c-1.8,1.1-3.9,1.6-6,1.5c-1.1,0-2.3-0.2-3.3-0.6c-1-0.4-2-1.1-2.7-1.9
		c-1.6-1.9-2.4-4.3-2.3-6.7c-0.1-2.6,0.8-5.1,2.5-7.1c0.8-0.9,1.8-1.6,2.9-2.1c1.1-0.5,2.3-0.7,3.5-0.7c1.9,0,3.8,0.4,5.5,1.4v-2.7
		c-1.7-0.7-3.6-1-5.5-1C254.9,169.2,253.3,169.4,251.8,170L251.8,170z M279.1,177.8c-1.5-1.6-3.6-2.4-5.7-2.3
		c-1.1-0.1-2.2,0.1-3.3,0.5c-1,0.4-2,1-2.8,1.8c-0.8,0.9-1.4,1.9-1.8,3c-0.4,1.1-0.6,2.3-0.5,3.5c-0.1,2.2,0.7,4.4,2.2,6.1
		c0.7,0.8,1.6,1.4,2.6,1.9c1,0.4,2.1,0.6,3.2,0.6c1.1,0,2.2-0.2,3.2-0.6c1-0.4,1.9-1.1,2.7-1.9c1.5-1.7,2.3-4,2.2-6.3
		C281.3,181.8,280.5,179.6,279.1,177.8L279.1,177.8z M277.1,189.1c-1,1.1-2.4,1.7-3.9,1.7c-0.8,0-1.5-0.1-2.2-0.4
		c-0.7-0.3-1.3-0.7-1.8-1.3c-1-1.3-1.6-2.9-1.5-4.6c-0.1-1.7,0.4-3.4,1.5-4.8c0.5-0.6,1.1-1,1.8-1.3c0.7-0.3,1.4-0.4,2.2-0.4
		c0.7,0,1.5,0.1,2.2,0.4s1.3,0.7,1.8,1.3c1,1.4,1.5,3.1,1.4,4.7C278.6,186,278.1,187.7,277.1,189.1L277.1,189.1z M289.8,176.8
		c-0.8,0.7-1.4,1.7-1.7,2.7v-3.4h-2.7v16.4h2.7v-8.4c-0.1-1.5,0.3-3,1.1-4.3c0.3-0.5,0.7-0.9,1.2-1.1c0.5-0.3,1-0.4,1.6-0.4
		c0.7-0.1,1.4,0.1,2,0.5V176c-0.5-0.2-1-0.2-1.6-0.2C291.4,175.8,290.5,176.1,289.8,176.8z M309.9,183.5c0.1-2.1-0.5-4.1-1.7-5.8
		c-0.6-0.7-1.4-1.3-2.3-1.6c-0.9-0.4-1.8-0.5-2.7-0.5c-1,0-2.1,0.2-3,0.6c-0.9,0.4-1.8,1-2.5,1.8c-1.5,1.7-2.3,4-2.2,6.2
		c-0.1,2.3,0.6,4.5,2,6.3c0.7,0.8,1.5,1.3,2.5,1.7c0.9,0.4,2,0.6,3,0.5c2,0.1,4-0.4,5.7-1.6v-2.5c-1.4,1.2-3.2,1.8-5.1,1.8
		c-0.7,0-1.4-0.1-2.1-0.3c-0.7-0.3-1.3-0.6-1.8-1.2c-1-1.2-1.5-2.7-1.4-4.2h11.6L309.9,183.5z M298.3,182.8c0.1-1.3,0.7-2.5,1.6-3.5
		c0.8-0.9,2-1.4,3.1-1.3c0.6,0,1.1,0.1,1.7,0.3c0.5,0.2,1,0.5,1.4,1c0.8,1,1.1,2.3,1.1,3.5L298.3,182.8z"/>
</g>
<g>
	<defs>
		<rect id="SVGID_00000098943847528306490880000000916615480619190941_" x="252.9" width="99.3" height="99.3"/>
	</defs>
	<clipPath id="SVGID_00000052089670065704628820000015491048800148979354_">
		<use xlink:href="#SVGID_00000098943847528306490880000000916615480619190941_"  style="overflow:visible;"/>
	</clipPath>
	<g style="clip-path:url(#SVGID_00000052089670065704628820000015491048800148979354_);">
		<g>
			<defs>
				<rect id="SVGID_00000148643712110478981350000017210545731265033398_" x="252.9" width="99.3" height="99.3"/>
			</defs>
			<clipPath id="SVGID_00000031888565328931463620000007517159994490999192_">
				<use xlink:href="#SVGID_00000148643712110478981350000017210545731265033398_"  style="overflow:visible;"/>
			</clipPath>
			<g style="clip-path:url(#SVGID_00000031888565328931463620000007517159994490999192_);">
				<defs>
					<filter id="Adobe_OpacityMaskFilter" filterUnits="userSpaceOnUse" x="252.9" y="0" width="99.3" height="99.3">
						<feColorMatrix  type="matrix" values="1 0 0 0 0  0 1 0 0 0  0 0 1 0 0  0 0 0 1 0"/>
					</filter>
				</defs>
				
					<mask maskUnits="userSpaceOnUse" x="252.9" y="0" width="99.3" height="99.3" id="mask0_00000005949613327822921060000017673713071587661444_">
					<path class="st23" d="M271.1,84l-16.5-12.4c-0.5-0.4-0.9-0.9-1.2-1.5s-0.4-1.2-0.4-1.9V31c0-0.6,0.1-1.3,0.4-1.9
						c0.3-0.6,0.7-1.1,1.2-1.5l16.5-12.4c-0.4,0.4-0.8,0.9-1,1.5c-0.2,0.6-0.3,1.2-0.2,1.8v62.1c-0.1,0.6,0,1.2,0.2,1.8
						C270.3,83,270.6,83.6,271.1,84z"/>
					<path class="st10" d="M350.3,17.2c-0.7-0.4-1.5-0.7-2.3-0.7c-0.5,0-1.1,0.1-1.5,0.3c-0.5,0.2-0.9,0.5-1.3,0.9l-0.3,0.3
						l-33,31.6l-18.3,17.5l-16.9,16.2l-0.3,0.3c-0.4,0.4-0.8,0.7-1.3,0.9c-0.5,0.2-1,0.3-1.5,0.3c-0.9,0-1.8-0.3-2.5-0.8l-16.5-12.4
						c0.8,0.6,1.9,0.9,2.9,0.8c1-0.1,2-0.6,2.7-1.4l18.4-21.3l15.1-17.5L320,1.4c0.4-0.5,0.9-0.8,1.4-1.1c0.5-0.3,1.1-0.4,1.7-0.4
						c0.8,0,1.6,0.2,2.3,0.7L350.3,17.2z"/>
					<path class="st10" d="M350.3,82.1l-24.8,16.5c-0.8,0.6-1.9,0.8-2.9,0.6c-1-0.1-1.9-0.6-2.6-1.4l-26.5-30.7l-15.1-17.5
						l-18.4-21.3c-0.7-0.8-1.7-1.3-2.7-1.4c-1-0.1-2.1,0.2-2.9,0.8l16.5-12.4c0.7-0.5,1.6-0.8,2.5-0.8c0.5,0,1.1,0.1,1.5,0.3
						c0.5,0.2,0.9,0.5,1.3,0.9l0.3,0.3l16.9,16.2l18.3,17.5l33,31.6l0.3,0.3c0.4,0.4,0.8,0.7,1.3,0.9c0.5,0.2,1,0.3,1.5,0.3
						C348.8,82.7,349.6,82.5,350.3,82.1z"/>
					<path class="st10" d="M352.2,20.7v57.9c0,0.7-0.2,1.4-0.5,2c-0.3,0.6-0.8,1.1-1.4,1.5l-24.8,16.5c0.6-0.4,1-0.9,1.4-1.5
						c0.3-0.6,0.5-1.3,0.5-2v-91c0-0.7-0.2-1.4-0.5-2c-0.3-0.6-0.8-1.1-1.4-1.5l24.9,16.5c0.6,0.4,1,0.9,1.4,1.5
						C352,19.3,352.1,20,352.2,20.7z"/>
				</mask>
				<g class="st24">
					<path class="st25" d="M271.1,84l-16.5-12.4c-0.5-0.4-0.9-0.9-1.2-1.5c-0.3-0.6-0.4-1.2-0.4-1.9V31c0-0.6,0.1-1.3,0.4-1.9
						c0.3-0.6,0.7-1.1,1.2-1.5l16.5-12.4c-0.4,0.4-0.8,0.9-1,1.5c-0.2,0.6-0.3,1.2-0.2,1.8v62.1c-0.1,0.6,0,1.2,0.2,1.8
						C270.3,83,270.6,83.6,271.1,84z"/>
					<g>
						
							<linearGradient id="SVGID_00000163786622739047011790000016128366396178026122_" gradientUnits="userSpaceOnUse" x1="339.0159" y1="184.3533" x2="265.2943" y2="110.1542" gradientTransform="matrix(1 0 0 -1 0 189.7995)">
							<stop  offset="0" style="stop-color:#7252AA"/>
							<stop  offset="1" style="stop-color:#7252AA"/>
						</linearGradient>
						<path style="fill:url(#SVGID_00000163786622739047011790000016128366396178026122_);" d="M350.3,17.2
							c-0.7-0.4-1.5-0.7-2.3-0.7c-0.5,0-1.1,0.1-1.5,0.3c-0.5,0.2-0.9,0.5-1.3,0.9l-0.3,0.3l-17.6,16.9l-15.4,14.8l-18.3,17.5
							l-16.9,16.2l-0.3,0.3c-0.4,0.4-0.8,0.7-1.3,0.9c-0.5,0.2-1,0.3-1.5,0.3c-0.9,0-1.8-0.3-2.5-0.8l-16.5-12.4
							c0.8,0.6,1.9,0.9,2.9,0.8c1-0.1,2-0.6,2.7-1.4l9.3-10.8l9.1-10.6l15.1-17.5L320,1.4c0.4-0.5,0.9-0.8,1.4-1.1
							c0.5-0.3,1.1-0.4,1.7-0.4c0.8,0,1.6,0.2,2.3,0.7L350.3,17.2z"/>
					</g>
					<g>
						
							<linearGradient id="SVGID_00000080887628227022975710000004748605347630324139_" gradientUnits="userSpaceOnUse" x1="266.2788" y1="175.367" x2="335.5688" y2="97.8036" gradientTransform="matrix(1 0 0 -1 0 189.7995)">
							<stop  offset="0" style="stop-color:#AE7FE2"/>
							<stop  offset="1" style="stop-color:#9A70D4"/>
						</linearGradient>
						<path style="fill:url(#SVGID_00000080887628227022975710000004748605347630324139_);" d="M350.3,82.1l-24.8,16.5
							c-0.8,0.6-1.9,0.8-2.9,0.6c-1-0.1-1.9-0.6-2.6-1.4l-26.5-30.7l-15.1-17.5l-9.1-10.5l-9.3-10.8c-0.7-0.8-1.7-1.3-2.7-1.4
							c-1-0.1-2.1,0.2-2.9,0.8l16.5-12.4c0.7-0.5,1.6-0.8,2.5-0.8c0.5,0,1.1,0.1,1.5,0.3c0.5,0.2,0.9,0.5,1.3,0.9l0.3,0.3l16.9,16.2
							l18.3,17.5l15.5,14.8l17.6,16.8l0.3,0.3c0.4,0.4,0.8,0.7,1.3,0.9c0.5,0.2,1,0.3,1.5,0.3C348.8,82.7,349.6,82.5,350.3,82.1z"/>
					</g>
					<g>
						
							<linearGradient id="SVGID_00000178888940087645552720000008602004367722329475_" gradientUnits="userSpaceOnUse" x1="338.7883" y1="191.1137" x2="338.7883" y2="91.2837" gradientTransform="matrix(1 0 0 -1 0 189.7995)">
							<stop  offset="0" style="stop-color:#D59DFF"/>
							<stop  offset="1" style="stop-color:#C18EF1"/>
						</linearGradient>
						<path style="fill:url(#SVGID_00000178888940087645552720000008602004367722329475_);" d="M352.2,20.7v57.9
							c0,0.7-0.2,1.4-0.5,2c-0.3,0.6-0.8,1.1-1.4,1.5l-24.8,16.5c0.6-0.4,1-0.9,1.4-1.5c0.3-0.6,0.5-1.3,0.5-2v-91
							c0-0.7-0.2-1.4-0.5-2c-0.3-0.6-0.8-1.1-1.4-1.5l24.9,16.5c0.6,0.4,1,0.9,1.4,1.5C352,19.3,352.1,20,352.2,20.7z"/>
					</g>
				</g>
			</g>
		</g>
	</g>
</g>
<g>
	<path class="st29" d="M83.5,28.2c0-1.6-0.3-3-1-4.2c-0.7-1.2-1.7-2.2-3-2.9C68.3,14.7,57.2,8.3,46.1,1.9c-3-1.7-5.9-1.7-8.9,0.1
		C32.8,4.6,10.6,17.3,4,21.1c-2.7,1.6-4,4-4,7.1C0,41.1,0,54,0,66.9c0,1.5,0.3,2.9,1,4.1c0.7,1.2,1.7,2.2,3.1,3
		c6.6,3.8,28.8,16.5,33.2,19.1c3,1.8,5.9,1.8,8.9,0.1C57.2,86.8,68.3,80.4,79.4,74c1.4-0.8,2.4-1.8,3.1-3c0.7-1.2,1-2.5,1-4.1
		C83.5,66.9,83.5,41.1,83.5,28.2"/>
	<path class="st30" d="M41.9,47.4L1,71c0.7,1.2,1.7,2.2,3.1,3c6.6,3.8,28.8,16.5,33.2,19.1c3,1.8,5.9,1.8,8.9,0.1
		C57.2,86.8,68.3,80.4,79.4,74c1.4-0.8,2.4-1.8,3.1-3L41.9,47.4z"/>
	<path class="st31" d="M83.5,28.2c0-1.6-0.3-3-1-4.2L41.9,47.4L82.5,71c0.7-1.2,1-2.5,1-4.1C83.5,66.9,83.5,41.1,83.5,28.2"/>
	<g>
		<path class="st10" d="M66,38.6V43h4.4v-4.4h2.2V43H77v2.2h-4.4v4.4H77v2.2h-4.4v4.4h-2.2v-4.4H66v4.4h-2.2v-4.4h-4.4v-2.2h4.4
			v-4.4h-4.4V43h4.4v-4.4H66z M70.4,45.2H66v4.4h4.4V45.2z"/>
		<path class="st10" d="M42,16.5c11.5,0,21.5,6.2,26.9,15.5l-0.1-0.1l-13.5,7.8c-2.7-4.5-7.5-7.5-13.1-7.6l-0.2,0
			c-8.5,0-15.5,6.9-15.5,15.5c0,2.7,0.7,5.3,2,7.7C31.2,59.9,36.2,63,42,63c5.8,0,10.8-3.2,13.5-7.9l-0.1,0.1l13.5,7.8
			c-5.3,9.2-15.2,15.4-26.5,15.5l-0.3,0C30.4,78.6,20.4,72.3,15,63c-2.6-4.5-4.1-9.8-4.1-15.4C10.9,30.4,24.8,16.5,42,16.5L42,16.5z
			"/>
	</g>
</g>
</svg>
