<?xml version="1.0" encoding="utf-8"?>
<!-- Generator: Adobe Illustrator 27.2.0, SVG Export Plug-In . SVG Version: 6.00 Build 0)  -->
<svg version="1.1" id="Layer_1" xmlns="http://www.w3.org/2000/svg" xmlns:xlink="http://www.w3.org/1999/xlink" x="0px" y="0px"
	 viewBox="0 0 469.2 269.8" style="enable-background:new 0 0 469.2 269.8;" xml:space="preserve">
<style type="text/css">
	.st0{fill-rule:evenodd;clip-rule:evenodd;fill:#0078D7;}
	.st1{fill:#908D89;}
	.st2{fill:#C8C6C4;}
	.st3{opacity:0.18;fill:#522CD5;enable-background:new    ;}
	.st4{fill:#8A6FE8;}
	.st5{fill:url(#SVGID_1_);}
	.st6{fill:#522CD5;}
	.st7{fill:url(#SVGID_00000002358934494170584970000001453583246550987138_);}
	.st8{fill:url(#SVGID_00000119819756986192324560000007885473872376582039_);}
	.st9{fill:url(#SVGID_00000067942496111950336180000017917244092443874698_);}
	.st10{fill:url(#SVGID_00000095318432862684701820000012874669534432756378_);}
	.st11{fill:#D8CFF7;}
	.st12{fill:#512BD4;}
	.st13{fill:#FFFFFF;}
	.st14{fill:url(#SVGID_00000029734301089378277070000006694785606037410710_);}
	.st15{fill:#A08BE8;}
	.st16{fill:#8065E0;}
	.st17{fill:url(#SVGID_00000019636350653408729390000011789729177144244925_);}
	.st18{fill:url(#SVGID_00000155108646289099399680000007895339370166888093_);}
	.st19{fill:url(#SVGID_00000145043055093018937720000006154899804244049805_);}
	.st20{fill:url(#SVGID_00000080913711329719296800000014633012820179753880_);}
	.st21{fill:url(#SVGID_00000067205344025467776170000008334490696379327627_);}
	.st22{fill:url(#SVGID_00000163037926655502499710000012514880295407589807_);}
	.st23{opacity:0.25;fill:#522CD5;enable-background:new    ;}
	.st24{opacity:0.33;fill:#522CD5;enable-background:new    ;}
	.st25{opacity:0.14;fill:#522CD5;enable-background:new    ;}
	.st26{opacity:0.17;fill:#522CD5;enable-background:new    ;}
	.st27{fill:#605D5A;}
	.st28{fill:#797673;}
	.st29{fill:#B3AFAB;}
	.st30{fill:#737373;}
	.st31{fill:#E1DFDD;}
	.st32{fill:#621EE5;}
	.st33{fill:#A179DC;}
	.st34{fill:#280068;}
	.st35{fill:#390091;}
	.st36{clip-path:url(#SVGID_00000152952509044203988310000008881027308668536987_);}
	.st37{clip-path:url(#SVGID_00000036225951630272400740000012907393446080829579_);}
	.st38{fill:#5E438F;}
	.st39{fill:url(#SVGID_00000095302958491012995610000010042446413037246647_);}
	.st40{fill:url(#SVGID_00000154392275494648255650000005421117436900684445_);}
	.st41{fill:url(#SVGID_00000103985197298148190130000004619937042935676853_);}
	.st42{fill:#563D7C;}
	.st43{fill:#E44D26;}
	.st44{fill:#F16529;}
	.st45{fill:#EBEBEB;}
	.st46{fill:#264DE4;}
	.st47{fill:#2965F1;}
	.st48{opacity:0.85;fill:#101010;enable-background:new    ;}
	.st49{fill:#131313;}
	.st50{fill:#D6BA32;}
	.st51{fill:#FFDA3E;}
	.st52{clip-path:url(#SVGID_00000063625024109959067650000007782928878943528352_);}
	.st53{clip-path:url(#SVGID_00000000945677150793089750000006546396253225733786_);}
	.st54{fill:#003B57;}
	.st55{fill:#0F80CC;}
	.st56{fill:url(#SVGID_00000143581805895329713300000013677751844427730321_);}
	.st57{fill:#336791;}
	.st58{fill:#0089D6;}
	.st59{clip-path:url(#SVGID_00000155859319865245955250000014850039837676897465_);}
	.st60{fill:#0078D4;}
	.st61{clip-path:url(#SVGID_00000128467028498386703770000014731517155031689639_);}
</style>
<symbol  id="A" viewBox="-30 -40 60 80">
	<path class="st0" d="M2.7-0.3c-0.2-0.4-0.6-0.6-0.8-1C1.5-1.6,1-1.8,0.6-1.8c-0.6,0-1,0.2-1.5,0.4s-0.6,0.6-1,0.8l-0.6,1.2
		c-0.2,0.4-0.2,1-0.2,1.7c0,0.8,0,1.5,0.2,1.9c0.2,0.6,0.4,1,0.6,1.2C-1.7,5.8-1.3,6-0.9,6C-0.4,6.3,0,6.3,0.4,6.3s0.8,0,1-0.2
		c0.4-0.2,0.6-0.4,1-0.8L3,4.1c0.2-0.4,0.2-1,0.2-1.9c0-0.6,0-1-0.2-1.7L2.7-0.3z M0-40c-16.7,0-30,5.6-30,11.8v56.1
		C-30,34.2-16.5,40,0,40c16.7,0,30-5.6,30-11.8v-56.1C30.2-34.2,16.7-40,0-40z M-9,7c0,0.4-0.2,0.8-0.4,1.2s-0.4,0.8-0.8,1
		c-0.4,0.4-0.8,0.6-1.2,0.8s-1,0.4-1.9,0.6c-0.6,0.2-1.5,0.2-2.5,0.2h-1.5c-0.4,0-0.8,0-1.2-0.2c-0.4,0-0.8-0.2-1-0.2
		c-0.4,0-0.6-0.2-0.8-0.4V5.7c0.2,0.2,0.6,0.4,1,0.6s0.6,0.4,1,0.6s0.8,0.2,1.2,0.4s0.8,0.2,1.2,0.2s0.6,0,0.8-0.2
		c0.2,0,0.4-0.2,0.4-0.2c0.2,0,0.2-0.2,0.2-0.4V6.3c0-0.2,0-0.4-0.2-0.6s-0.2-0.4-0.4-0.4c-0.2-0.2-0.4-0.2-0.8-0.4s-0.6-0.2-1-0.4
		c-0.6-0.2-1.2-0.6-1.9-1c-0.4-0.4-0.8-0.6-1.2-1s-0.6-0.8-0.6-1.2c-0.2-0.4-0.2-1-0.2-1.5c0-0.8,0.2-1.5,0.4-2.1
		c0.4-0.6,0.8-1.2,1.2-1.7c0.6-0.4,1.2-0.8,2.1-1s1.7-0.4,2.7-0.4h1.5c0.4,0,0.8,0,1.2,0.2c0.4,0,0.6,0.2,1,0.2s0.6,0.2,0.8,0.2v4.2
		c-0.2-0.2-0.4-0.2-0.8-0.4c-0.2-0.2-0.6-0.2-1-0.4s-0.6-0.2-1-0.2H-14c-0.6,0-1,0-1.2,0.2c-0.4,0.2-0.4,0.4-0.4,0.8
		c0,0.2,0,0.4,0.2,0.4c0,0.2,0.2,0.2,0.4,0.4s0.4,0.2,0.6,0.4s0.6,0.2,1,0.4c0.6,0.2,1.2,0.6,1.9,0.8c0.6,0.4,1,0.6,1.5,1
		S-9.4,3.6-9,4c0.2,0.4,0.4,1,0.4,1.9C-8.8,6.2-9,6.6-9,7L-9,7z M3.3,14.9l-3.5-3.7c-1,0-2.1-0.4-2.9-0.6c-0.8-0.4-1.7-1-2.3-1.7
		s-1.2-1.5-1.7-2.5S-7.7,4.3-7.7,3s0.2-2.5,0.6-3.5s1-1.9,1.7-2.7s1.7-1.2,2.5-1.7c1-0.4,2.1-0.6,3.3-0.6s2.3,0.2,3.1,0.6
		c1,0.4,1.8,1,2.5,1.7c0.6,0.6,1.2,1.7,1.7,2.5c0.4,1,0.6,2.1,0.6,3.5c0,0.8,0,1.9-0.4,2.5c-0.2,0.8-0.6,1.5-1,2.1S6,8.6,5.4,9
		s-1,0.8-1.9,1.2L9,14.9H3.3L3.3,14.9z M21.2,10.7H10.8v-16h4.8V7h5.6V10.7z M0-22.5c-11.9,0-21.5-2.9-21.5-6.4s9.6-6.4,21.5-6.4
		s21.5,2.9,21.5,6.4S11.9-22.5,0-22.5L0-22.5z"/>
</symbol>
<g>
	<g>
		<g>
			<rect x="203.1" y="70.1" transform="matrix(0.5836 -0.812 0.812 0.5836 27.6154 195.1092)" class="st1" width="2" height="1"/>
		</g>
		<g>
			<path class="st1" d="M249.8,104.5l-1.7-1.2l1.2-1.6l1.7,1.2L249.8,104.5z M244.7,100.9l-1.7-1.2l1.2-1.6l1.7,1.2L244.7,100.9z
				 M239.6,97.2l-1.7-1.2l1.2-1.6l1.7,1.2L239.6,97.2z M234.5,93.6l-1.7-1.2l1.2-1.6l1.7,1.2L234.5,93.6z M229.4,89.9l-1.7-1.2
				l1.2-1.6l1.7,1.2L229.4,89.9z M224.3,86.3l-1.7-1.2l1.2-1.6l1.7,1.2L224.3,86.3z M219.2,82.6l-1.7-1.2l1.2-1.6l1.7,1.2
				L219.2,82.6z M214.1,79l-1.7-1.2l1.2-1.6l1.7,1.2L214.1,79z M209.1,75.3l-1.7-1.2l1.2-1.6l1.7,1.2L209.1,75.3z"/>
		</g>
		<g>
			<rect x="253.1" y="106" transform="matrix(0.583 -0.8125 0.8125 0.583 19.4395 250.9068)" class="st1" width="2" height="1"/>
		</g>
	</g>
	<g>
		<path class="st1" d="M276.6,96.4l-2-0.1l0.1-2l2,0.1L276.6,96.4z M276.9,90.4l-2-0.1l0.1-2l2,0.1L276.9,90.4z M277.2,84.4l-2-0.1
			l0.1-2l2,0.1L277.2,84.4z"/>
	</g>
	<g>
		<path class="st1" d="M303.2,97l-1.2-1.6l1.6-1.2l1.2,1.6L303.2,97z M307.9,93.4l-1.2-1.6l1.6-1.2l1.2,1.6L307.9,93.4z M312.7,89.7
			l-1.2-1.6l1.6-1.2l1.2,1.6L312.7,89.7z M317.4,86l-1.2-1.6l1.6-1.2l1.2,1.6L317.4,86z M322.2,82.4l-1.2-1.6l1.6-1.2l1.2,1.6
			L322.2,82.4z M326.9,78.7l-1.2-1.6l1.6-1.2l1.2,1.6L326.9,78.7z M331.7,75.1l-1.2-1.6l1.6-1.2l1.2,1.6L331.7,75.1z"/>
	</g>
	<g>
		<path class="st1" d="M305.1,116.8l-0.4-2l2-0.4l0.4,2L305.1,116.8z M311,115.7l-0.4-2l2-0.4l0.4,2L311,115.7z M316.9,114.5l-0.4-2
			l2-0.4l0.4,2L316.9,114.5z M322.8,113.3l-0.4-2l2-0.4l0.4,2L322.8,113.3z M328.7,112.2l-0.4-2l2-0.4l0.4,2L328.7,112.2z
			 M334.6,111l-0.4-2l2-0.4l0.4,2L334.6,111z M340.4,109.8l-0.4-2l2-0.4l0.4,2L340.4,109.8z M346.3,108.7l-0.4-2l2-0.4l0.4,2
			L346.3,108.7z M352.2,107.5l-0.4-2l2-0.4l0.4,2L352.2,107.5z M358.1,106.3l-0.4-2l2-0.4l0.4,2L358.1,106.3z M364,105.2l-0.4-2
			l2-0.4l0.4,2L364,105.2z M369.9,104l-0.4-2l2-0.4l0.4,2L369.9,104z M375.8,102.8l-0.4-2l2-0.4l0.4,2L375.8,102.8z M381.6,101.7
			l-0.4-2l2-0.4l0.4,2L381.6,101.7z M387.5,100.5l-0.4-2l2-0.4l0.4,2L387.5,100.5z"/>
	</g>
	<g>
		<path class="st1" d="M252.5,117.9l-1.8-0.5l0.5-1.9l1.8,0.5L252.5,117.9z M246.8,116.4l-1.9-0.5l0.5-1.9l1.9,0.5L246.8,116.4z
			 M241,114.8l-1.9-0.5l0.5-1.9l1.9,0.5L241,114.8z M235.2,113.2l-1.9-0.5l0.5-1.9l1.9,0.5L235.2,113.2z M229.5,111.7l-1.9-0.5
			l0.5-1.9l1.9,0.5L229.5,111.7z M223.7,110.1l-1.9-0.5l0.5-1.9l1.9,0.5L223.7,110.1z M217.9,108.5L216,108l0.5-1.9l1.9,0.5
			L217.9,108.5z M212.1,107l-1.9-0.5l0.5-1.9l1.9,0.5L212.1,107z M206.3,105.4l-1.9-0.5l0.5-1.9l1.9,0.5L206.3,105.4z M200.5,103.8
			l-1.9-0.5l0.5-1.9l1.9,0.5L200.5,103.8z M194.7,102.3l-1.9-0.5l0.5-1.9l1.9,0.5L194.7,102.3z M188.9,100.7l-1.9-0.5l0.5-1.9
			l1.9,0.5L188.9,100.7z M183.1,99.1l-1.9-0.5l0.5-1.9l1.9,0.5L183.1,99.1z M177.3,97.5l-1.9-0.5l0.5-1.9l1.9,0.5L177.3,97.5z
			 M171.5,96l-1.9-0.5l0.5-1.9l1.9,0.5L171.5,96z M165.7,94.4l-1.9-0.5l0.5-1.9l1.9,0.5L165.7,94.4z M160,92.8l-1.9-0.5l0.5-1.9
			l1.9,0.5L160,92.8z M154.2,91.3l-1.9-0.5l0.5-1.9l1.9,0.5L154.2,91.3z M148.4,89.7l-1.9-0.5l0.5-1.9l1.9,0.5L148.4,89.7z"/>
	</g>
	<g>
		<path class="st2" d="M223.8,203.3c-0.7-2.9-3.5-7.1-10.7-6.9l-2.9,0.2l-0.1-0.1l-1.6,0.2l-64.5,4.4c-5.6,0-10.4,3.5-11.7,8.5
			L120,262.3h4.2l12.1-51.7c0.7-2.6,2.4-3.9,4.8-4.3c9.4,0,19.4,0.5,25.7,0.8c-1.1,1.9-2,4.4-2.4,7.8L163,249h4.1l1.4-33.7
			c0.4-3.7,1.7-6.2,3.3-7.9c0.2,0,0.4,0,0.5,0s0.2,0,0.3,0c4.7,0.8,8.9,2.6,9.9,8.1l6.1,55.2h4.1l-5.7-55.3
			c-0.6-4.8-3.6-8.5-8.4-10.4l35.3-4.9c2.8-0.1,5.3,1.3,6.2,4.2l16.2,52.6l3.5-1.8L223.8,203.3z"/>
		<path class="st3" d="M160.3,198.3c0,0-18,4.6-27.1,4.6s-13.6-8.1-15.9-20.6s-6.9-50.4-4.4-61.4c1.8-7.8,7-10.9,15.8-11.2
			c5.3-0.2,17-0.6,27.8,1.1s18.2,17.2,24.9,27.3c19.9,30.4,32.9,50.1,32.9,50.1L160.3,198.3z"/>
		<path class="st3" d="M215.9,196.7l-56.8,7.4c-4.3,0-34.2-4.6-34.2-8.9v-3.9c0-4.3,15.9-7.1,20.3-7.1l70.7-7.1
			c4.3,0,7.9,3.5,7.9,7.8v3.9C223.8,193.2,220.2,196.7,215.9,196.7z"/>
	</g>
	<g>
		<path class="st4" d="M240.8,157.2c-0.6,0.4-15.9,10.3-30.5,5.2c-8.4-3-14.7-10.2-18.7-21.4l7.7-3.1c3.1,8.7,7.7,14.2,13.6,16.3
			c10.9,3.9,23.4-4.2,23.5-4.3L240.8,157.2z"/>
	</g>
	<g>
		<g>
			
				<linearGradient id="SVGID_1_" gradientUnits="userSpaceOnUse" x1="2654.6255" y1="420.1532" x2="2654.6255" y2="454.1006" gradientTransform="matrix(-0.9997 2.290000e-02 2.290000e-02 0.9997 2829.5615 -310.8056)">
				<stop  offset="0.252" style="stop-color:#522CD5"/>
				<stop  offset="0.5558" style="stop-color:#8A6FE8"/>
			</linearGradient>
			<path class="st5" d="M190.2,203.9c1.4-6.8,2.9-20.9-2.4-33.9l-8.1,2.8c4.8,11.8,3,24.2,1.8,29.6
				C181.5,202.8,185.8,204,190.2,203.9z"/>
		</g>
		<path class="st6" d="M181.6,202.3l6.7,1.2l-0.1,35.4l-13.5-2.5c-1-0.2-1.7-1.1-1.4-2.1L181.6,202.3z"/>
		
			<linearGradient id="SVGID_00000147204474678037541040000009282340647772686983_" gradientUnits="userSpaceOnUse" x1="2658.8137" y1="558.8882" x2="2636.699" y2="597.1916" gradientTransform="matrix(-0.9839 -0.1785 -0.2473 0.9714 2940.0295 133.8)">
			<stop  offset="0" style="stop-color:#522CD5"/>
			<stop  offset="0.4397" style="stop-color:#8A6FE8"/>
		</linearGradient>
		<path style="fill:url(#SVGID_00000147204474678037541040000009282340647772686983_);" d="M204.4,232.6c1,1.1,0.8,2.4,0.4,3.7
			l-1,4.1c-0.2,0.7-1,1.2-1.8,1.1l-14.1-2.6c-0.9-0.2-1.4-0.9-1.2-1.8l0.9-4.2c0.4-1.5-0.1-2.2-1-3.9c-1.7-2.9-5.5-17.6-3.3-26.3
			l6.9,1.3C189.7,209.2,194.8,222.1,204.4,232.6z"/>
		
			<radialGradient id="SVGID_00000012454503787103017010000013033100194944976820_" cx="656.0038" cy="-4.5848" r="13.1524" gradientTransform="matrix(1.129 0.2051 -0.1944 1.0727 -544.3177 95.4369)" gradientUnits="userSpaceOnUse">
			<stop  offset="3.400000e-02" style="stop-color:#522CD5"/>
			<stop  offset="0.9955" style="stop-color:#8A6FE8"/>
		</radialGradient>
		<path style="fill:url(#SVGID_00000012454503787103017010000013033100194944976820_);" d="M204.8,236.2c0.2-0.9,0.4-1.8,0.2-2.6
			l-17.6-3.2c0.4,0.8,0.4,1.4,0.2,2.4l-0.9,4.2c-0.2,0.8,0.3,1.6,1.2,1.8l14.1,2.6c0.8,0.1,1.6-0.3,1.8-1.1L204.8,236.2z"/>
	</g>
	<g>
		
			<linearGradient id="SVGID_00000096775019452581544570000000931514485511421584_" gradientUnits="userSpaceOnUse" x1="-2964.5051" y1="3322.96" x2="-2964.5051" y2="3354.5195" gradientTransform="matrix(0.942 -0.3356 0.3356 0.942 1844.2798 -3952.1489)">
			<stop  offset="0.252" style="stop-color:#522CD5"/>
			<stop  offset="0.5558" style="stop-color:#8A6FE8"/>
		</linearGradient>
		<path style="fill:url(#SVGID_00000096775019452581544570000000931514485511421584_);" d="M163.9,200.2c7-7.6,11.3-12.1,11.1-14.2
			c-0.1-0.6-0.7-1.6-3.7-3.8c-2.5-1.8-5.4-3.9-5.4-3.9l5.2-6.7c0,0,3,2.1,5.5,3.9c3.4,2.4,6.6,5.3,7,9.5c0.5,5.8-2.4,8.9-12.7,20.1
			L163.9,200.2z"/>
	</g>
	
		<radialGradient id="SVGID_00000147900991766275249210000013568584902501443482_" cx="2771.1504" cy="1715.6781" r="40.4435" gradientTransform="matrix(-1.1334 0.1703 0.1792 1.0768 3012.0645 -2200.2405)" gradientUnits="userSpaceOnUse">
		<stop  offset="0.4744" style="stop-color:#A08BE8"/>
		<stop  offset="0.8618" style="stop-color:#8065E0"/>
	</radialGradient>
	<path style="fill:url(#SVGID_00000147900991766275249210000013568584902501443482_);" d="M214.5,142.8c1.2-11.6-2.2-20.1-2.2-20.1
		l2.8-0.4l0.1-0.1c-7.3-19.8-28.7-32.4-51.2-29c-25.4,3.8-42.8,26.5-38.8,50.6s27.9,40.6,53.3,36.8c20.1-3,35.1-17.8,38.6-35.7
		C217.1,144.2,216.8,142.9,214.5,142.8z"/>
	<path class="st11" d="M214.6,153.1L135.1,165c2.3,2.6,4.8,4.9,7.6,7l66.9-10.1C211.7,159.2,213.3,156.3,214.6,153.1z"/>
	<g>
		<polygon class="st12" points="191.9,167.1 206.8,164.9 204.7,152.3 189.8,154.6 		"/>
		<g>
			<path class="st13" d="M193.7,162.1c-0.1,0-0.2,0-0.3-0.1s-0.1-0.1-0.1-0.2c0-0.1,0-0.2,0.1-0.2c0.1-0.1,0.1-0.1,0.2-0.1
				c0.1,0,0.2,0,0.3,0.1s0.1,0.1,0.1,0.2s0,0.2-0.1,0.2C193.9,162,193.8,162,193.7,162.1z"/>
			<path class="st13" d="M197.6,161.4l-0.6,0.1l-2.1-2.3c-0.1-0.1-0.1-0.1-0.1-0.2l0,0c0,0.1,0.1,0.2,0.1,0.5l0.4,2.3l-0.6,0.1
				l-0.6-3.5l0.7-0.1l2,2.2c0.1,0.1,0.1,0.2,0.2,0.2l0,0c0-0.1-0.1-0.2-0.1-0.5l-0.4-2.2l0.6-0.1L197.6,161.4z"/>
			<path class="st13" d="M200.4,161l-2,0.3l-0.6-3.5l1.9-0.3l0.1,0.5l-1.3,0.2l0.2,1l1.2-0.2l0.1,0.5l-1.2,0.2l0.2,1l1.4-0.2
				L200.4,161z"/>
			<path class="st13" d="M202.8,157.6l-1,0.1l0.5,3l-0.6,0.1l-0.5-3l-1,0.1l-0.1-0.5l2.6-0.4L202.8,157.6z"/>
		</g>
	</g>
	
		<radialGradient id="SVGID_00000032611671358342626320000000251301968700486300_" cx="2743.7104" cy="1717.1831" r="41.9124" gradientTransform="matrix(-1.1334 0.1703 0.1792 1.0768 3012.0645 -2200.2405)" gradientUnits="userSpaceOnUse">
		<stop  offset="9.330000e-02" style="stop-color:#E1DFDD"/>
		<stop  offset="0.6573" style="stop-color:#FFFFFF"/>
	</radialGradient>
	<path style="fill:url(#SVGID_00000032611671358342626320000000251301968700486300_);" d="M214.6,142.8c1.2-11.4-2.1-19.9-2.2-20.1
		l-47.8,7.2c0,0-3.1,0.2-2.6,2.8c0.4,2.6,1.8,10,3.1,18.1c0.3,1.7,1.9,2.3,3,2.1C168.2,152.8,213.7,144.8,214.6,142.8z"/>
	<path class="st15" d="M186.2,147.1c0,0,6.4-6.6,7.7-7.9c1.3-1.2,2.5-1.5,4-0.6s9.8,5.2,9.8,5.2L186.2,147.1z"/>
	<path class="st12" d="M216.9,145.5c0,0,1-2.6-2.3-2.8l-47,7c-1.1,0.2-2.6-0.2-2.9-1.2c0.1,0.7,0.2,1.4,0.4,2.2
		c0.2,1.5,1.6,2.1,2.7,2.1c0.1,0,0.2,0,0.3,0l3.2-0.5L216.9,145.5z"/>
	<g>
		
			<ellipse transform="matrix(0.9817 -0.1904 0.1904 0.9817 -23.0471 36.3224)" class="st12" cx="177.5" cy="138.1" rx="3.6" ry="5.8"/>
		<path class="st16" d="M177,135.3c0.6-0.8,1.6-1.3,2.5-1.3c0.7,0.9,1.3,2.2,1.6,3.6c0.2,0.9,0.2,1.8,0.1,2.6
			c-1.1,0.5-2.4,0.4-3.4-0.3C176.2,138.7,175.9,136.7,177,135.3z"/>
	</g>
	<path class="st4" d="M241.9,142.2l-11,7c-1.8,1.1-2.5,3.6-1.4,5.4l0.2,0.3c1,1.8,3.4,2.3,5.2,1.2l11-7c1.8-1.1,2.5-3.6,1.4-5.4
		l-0.2-0.3C246.1,141.5,243.7,141,241.9,142.2z"/>
	<path class="st4" d="M236.2,164.2l7.9,2.3c2.1,0.6,4.3-0.7,4.9-2.9c0.6-2.2-0.6-4.5-2.8-5.1l-8.1-2.3L236.2,164.2z"/>
	<path class="st4" d="M239.9,161.6l11.2-1.9c2.1-0.4,3.6-2.5,3.3-4.8s-2.4-3.8-4.5-3.4l-8.3,1.4L239.9,161.6z"/>
	<path class="st4" d="M239.3,159.2l10.5-4.5c2-0.9,3-3.3,2.2-5.4c-0.8-2.1-3.1-3.1-5.1-2.3l-10.7,4.6L239.3,159.2z"/>
	
		<radialGradient id="SVGID_00000060024131827355985940000008189973155252674433_" cx="-13470.9482" cy="814.9142" r="7.5791" gradientTransform="matrix(0.4401 -1.0537 0.9979 0.4531 5347.854 -14409.1582)" gradientUnits="userSpaceOnUse">
		<stop  offset="0" style="stop-color:#8065E0"/>
		<stop  offset="1" style="stop-color:#512BD4"/>
	</radialGradient>
	<path style="fill:url(#SVGID_00000060024131827355985940000008189973155252674433_);" d="M229,150.9c2.6-4,7.8-5,11.5-2.3
		s4.7,8.1,2.1,12.1c-2.6,4-7.8,5-11.5,2.3C227.3,160.3,226.4,154.9,229,150.9z"/>
	<g>
		<path class="st4" d="M159.1,91.4l8.6-1.3l-3.9-14.6l-6.2,0.9L159.1,91.4z"/>
		<path class="st11" d="M163.2,81.6c-3,1.2-6.5,0-7.9-2.8c-1.3-2.8,0-6.1,3-7.4c3-1.2,6.5,0,7.9,2.8C167.6,77,166.2,80.3,163.2,81.6
			z"/>
		<path class="st6" d="M156.7,97c-0.4,0.1-0.8-0.2-0.8-0.6c-0.2-3.9,2.7-7.4,6.9-8.1c4.2-0.6,8.2,1.8,9.3,5.6
			c0.1,0.4-0.1,0.7-0.5,0.8L156.7,97z"/>
	</g>
	<g>
		<path class="st6" d="M163.9,200.2l5.4,3.8l-8.8,37.9l-19.3-13.5c-0.8-0.6-0.9-1.7-0.2-2.5L163.9,200.2z"/>
		
			<linearGradient id="SVGID_00000116214033759202916790000015786114757240057772_" gradientUnits="userSpaceOnUse" x1="347.4883" y1="-3428.3311" x2="325.1363" y2="-3389.6167" gradientTransform="matrix(-0.804 -0.5946 -0.6508 0.7625 -1781.837 3022.5093)">
			<stop  offset="0" style="stop-color:#522CD5"/>
			<stop  offset="0.4397" style="stop-color:#8A6FE8"/>
		</linearGradient>
		<path style="fill:url(#SVGID_00000116214033759202916790000015786114757240057772_);" d="M171.3,237.9c0.5,1.4-0.4,2.6-1.4,3.7
			l-2.9,3.2c-0.5,0.6-1.4,0.7-2.1,0.3l-6.8-4.8c-0.7-0.5-0.8-1.4-0.2-2.1l2.8-3.5c1.1-1.2,1.6-2.1,1-3.9
			c-3.8-10.7-2.4-20.6,4.1-29.2l5,3.5C167.8,209.7,164.8,220.1,171.3,237.9z"/>
		
			<radialGradient id="SVGID_00000111173217783676603260000009086791746399921551_" cx="3332.8792" cy="-3543.2402" r="12.1862" gradientTransform="matrix(0.9066 0.6374 -0.693 0.8925 -5306.0776 1267.9333)" gradientUnits="userSpaceOnUse">
			<stop  offset="3.400000e-02" style="stop-color:#522CD5"/>
			<stop  offset="0.9955" style="stop-color:#8A6FE8"/>
		</radialGradient>
		<path style="fill:url(#SVGID_00000111173217783676603260000009086791746399921551_);" d="M165,245.1c0.6,0.4,1.6,0.3,2.1-0.3
			l2.9-3.2c0.6-0.7,1.2-1.5,1.4-2.3l-9.4-6.6c-0.1,0.8-0.6,1.4-1.2,2.1l-2.8,3.5c-0.6,0.7-0.5,1.6,0.2,2.1L165,245.1z"/>
	</g>
	<g>
		
			<ellipse transform="matrix(0.9817 -0.1904 0.1904 0.9817 -21.6979 41.7653)" class="st12" cx="206.5" cy="133.8" rx="3.6" ry="5.8"/>
		<path class="st16" d="M206,130.9c0.6-0.8,1.6-1.3,2.5-1.3c0.7,0.9,1.3,2.2,1.6,3.6c0.2,0.9,0.2,1.8,0.1,2.6
			c-1.1,0.5-2.4,0.4-3.4-0.3C205.2,134.4,204.9,132.4,206,130.9z"/>
	</g>
	<g>
		
			<linearGradient id="SVGID_00000044154514009557987270000003196593339092086156_" gradientUnits="userSpaceOnUse" x1="-5380.9009" y1="596.7981" x2="-5380.9009" y2="633.7219" gradientTransform="matrix(0.6857 -0.7279 0.7279 0.6857 3386.3147 -4171.0488)">
			<stop  offset="0.2495" style="stop-color:#967FE6"/>
			<stop  offset="0.6748" style="stop-color:#8A6FE8"/>
		</linearGradient>
		<path style="fill:url(#SVGID_00000044154514009557987270000003196593339092086156_);" d="M135.6,175.6c-3.7-4.9-4-15,1.2-26.4
			c1-2.1,9,0.9,8,3.1c-5.3,11.8-3.1,17.8-2.5,18.5c1.8,2,7.4,1.9,13.7-0.2c2.2-0.7,4.6,0.5,5.4,2.8c0.8,2.3-0.3,4.7-2.5,5.4
			c-5.9,1.9-16.6,4.2-22.5-2.2C136.1,176.2,135.8,175.9,135.6,175.6z"/>
	</g>
	<path class="st4" d="M169.3,162.8l-11.9,3.9c-2,0.6-3,2.8-2.3,4.9l0.1,0.4c0.7,2.1,2.8,3.2,4.8,2.6l11.9-3.9c2-0.6,3-2.8,2.3-4.9
		l-0.1-0.4C173.4,163.4,171.3,162.2,169.3,162.8z"/>
	<path class="st4" d="M159.2,182.7l7.4,4.4c2,1.2,4.4,0.6,5.5-1.4s0.3-4.4-1.6-5.6l-7.6-4.5L159.2,182.7z"/>
	<path class="st4" d="M162.1,181.8l11.6,1.5c2.2,0.3,4.2-1.3,4.3-3.5s-1.5-4.2-3.8-4.5l-8.6-1.1L162.1,181.8z"/>
	<path class="st4" d="M162.3,178.1l11.5-1.2c2.2-0.2,3.7-2.2,3.4-4.4s-2.4-3.8-4.6-3.6l-11.7,1.2L162.3,178.1z"/>
	
		<radialGradient id="SVGID_00000093164211667877877400000013239165014635883418_" cx="-1334.5309" cy="-12143.5225" r="7.5696" gradientTransform="matrix(-8.910000e-02 1.108 -1.1172 -0.1457 -13521.3584 -115.4956)" gradientUnits="userSpaceOnUse">
		<stop  offset="0" style="stop-color:#8065E0"/>
		<stop  offset="1" style="stop-color:#512BD4"/>
	</radialGradient>
	<path style="fill:url(#SVGID_00000093164211667877877400000013239165014635883418_);" d="M154.9,168.1c3.5-3,8.8-2.4,12,1.2
		s2.9,8.9-0.6,11.9s-8.8,2.4-12-1.2S151.4,171.1,154.9,168.1z"/>
	
		<radialGradient id="SVGID_00000056412823367908504480000002299087435929859207_" cx="-1908.2102" cy="1733.9161" r="7.459" gradientTransform="matrix(1.1334 -0.1703 0.1792 1.0768 1992.0548 -2047.2936)" gradientUnits="userSpaceOnUse">
		<stop  offset="0" style="stop-color:#8065E0"/>
		<stop  offset="1" style="stop-color:#512BD4"/>
	</radialGradient>
	<ellipse style="fill:url(#SVGID_00000056412823367908504480000002299087435929859207_);" cx="142" cy="147.2" rx="8.6" ry="8.1"/>
	<path class="st23" d="M112.4,124.5c-1.1,14.1,2.8,46.3,4.9,57.7c2.3,12.6,7,20.9,16.1,20.9l25.6,1c1.3,0,2-1.5,1.1-2.5
		C147.8,187.5,119.1,150.9,112.4,124.5z"/>
	<path class="st24" d="M326.4,261.6c-1.1-0.2-98.3-0.2-99.4,0c-2.3,0.5-2.7,2.3-0.9,3.1c0,0,0,0,0.1,0c3.8,1.7,25,3.1,50.6,3.1
		c25.4,0,46.5-1.3,50.5-3l0,0c0,0,0,0,0.1,0l0,0C329.1,263.9,328.6,262.1,326.4,261.6z"/>
	<path class="st25" d="M294.5,259c-7-3.8-14.9-20.4-14.9-38.6c0-15.5,0.5-48.4,28-52.7l-28.4-6.1l-1.6,0.2l-30,5.9
		c27.5,4.3,28,37.2,28,52.7c0,18.1-9.8,34.8-16.8,38.6c-19.4,0.5-33.2,1.8-33.2,3.4c0,2,22.9,3.6,51.2,3.6s51.2-1.6,51.2-3.6
		C327.9,260.9,314,259.5,294.5,259z"/>
	<path class="st24" d="M362.2,161.6c-1.8-0.3-168.3-0.2-169.6,0.1c-2.8,0.6-3.9,2.9,0.7,3.8l0,0c8.9,1.9,43.2,3.3,84.2,3.3
		c42.1,0,77.1-1.5,84.9-3.5l0,0C366.7,164.4,365.9,162.3,362.2,161.6z"/>
	<ellipse class="st26" cx="277.6" cy="162.5" rx="86.5" ry="4.3"/>
	<path class="st2" d="M207.1,158.4L257,154c0,0-3.7,7-4.1,7C252.6,161,207.1,158.4,207.1,158.4z"/>
	<path class="st27" d="M285.5,161.7h-75.1c-1.8,0-3.3-1.5-3.3-3.3l0,0h81.7l0,0C288.9,160.2,287.4,161.7,285.5,161.7z"/>
	<path class="st28" d="M249.4,161.7h-38.9c-1.8,0-3.3-1.5-3.3-3.3l0,0h81.7h-36.2C252.7,160.2,251.2,161.7,249.4,161.7z"/>
	<path class="st29" d="M301.3,99.4l-37.7,0.4c-0.9,0-1.6,0.6-1.8,1.5l-11.6,57.1h38.7l14.7-56.2C303.9,100.8,302.8,99.3,301.3,99.4z
		"/>
	<path class="st30" d="M301.3,99.4L266,99.8c-0.9,0-1.6,0.6-1.8,1.5l-11.6,57.1h36.2l14.7-56.2C303.9,100.8,302.8,99.3,301.3,99.4z"
		/>
	<g>
		<polygon class="st13" points="269.5,165.8 259.2,165.8 257.4,142.6 271.4,142.6 		"/>
		<polygon class="st31" points="271.1,147.2 271.4,142.6 257.4,142.6 257.7,147.2 		"/>
		<path class="st27" d="M272.2,144.1h-15.9c-0.5,0-1-0.5-0.8-1l0.6-3c0.1-0.4,0.4-0.7,0.8-0.7h14.6c0.4,0,0.8,0.3,0.8,0.7l0.6,3
			C273.1,143.6,272.7,144.1,272.2,144.1z"/>
	</g>
</g>
<g>
	<path class="st32" d="M290.8,212.3c-0.3-0.3-0.5-0.5-0.9-0.7c-0.4-0.1-0.7-0.3-1.1-0.3s-0.8,0.1-1.1,0.3c-0.4,0.1-0.7,0.4-0.9,0.7
		c-0.3,0.3-0.5,0.5-0.7,0.9c-0.1,0.4-0.3,0.7-0.3,1.1c0,0.4,0,0.8,0.3,1.1c0.1,0.4,0.4,0.7,0.7,0.9c0.5,0.5,1.2,0.8,2,0.8
		s1.5-0.3,2-0.8c0.3-0.3,0.5-0.5,0.7-0.9c0.1-0.4,0.3-0.7,0.3-1.1c0-0.4-0.1-0.8-0.3-1.1C291.3,212.9,291,212.6,290.8,212.3
		L290.8,212.3z M324.1,205.9c0,1.8,0,3.6,0.3,5.4h-0.1c-0.3-0.4-0.7-1.2-1.5-2.4l-18.2-28.5h-5.4v36.4h4.2v-26.4c0-1.7,0-3.3-0.3-5
		h0.1c0.3,0.8,0.7,1.6,1.2,2.2l18.7,29h5.3v-36.4h-4.2v25.6h-0.1V205.9z M357.1,212.6h-15v-12.7h13.1v-3.8h-13.1V184h14.1v-3.8
		h-18.5v36.4H357L357.1,212.6z M360.4,180.3v3.8h10.4v32.6h4.2v-32.6h10.6v-3.8H360.4z M318.9,225.6c-1.1,0.4-2,1.1-2.8,1.8
		c-0.8,0.9-1.5,1.8-1.8,3c-0.4,1.2-0.7,2.4-0.5,3.6c-0.1,2.2,0.7,4.4,2.1,5.9c0.8,0.8,1.6,1.3,2.6,1.7c1.1,0.4,2.1,0.5,3.2,0.5
		c1.6,0,3.2-0.3,4.6-0.9v-1.8c-1.3,0.8-2.8,1.2-4.4,1.1c-0.8,0-1.6-0.1-2.4-0.4s-1.5-0.8-2-1.5c-1.2-1.3-1.7-3.2-1.7-4.9
		c-0.1-1.8,0.5-3.7,1.8-5.1c0.5-0.7,1.3-1.2,2.1-1.5c0.8-0.4,1.7-0.5,2.5-0.5c1.5,0,2.8,0.3,4,1.1v-2c-1.3-0.5-2.6-0.8-4-0.7
		C321,225.1,319.9,225.2,318.9,225.6L318.9,225.6z M338.8,231.4c-1.1-1.2-2.6-1.7-4.2-1.7c-0.8,0-1.6,0.1-2.4,0.4
		c-0.8,0.3-1.5,0.8-2.1,1.3c-0.5,0.7-1.1,1.3-1.3,2.2c-0.3,0.8-0.4,1.7-0.4,2.5c-0.1,1.6,0.5,3.3,1.6,4.5c0.5,0.5,1.2,1.1,2,1.3
		c0.8,0.3,1.6,0.4,2.4,0.4s1.6-0.1,2.4-0.4c0.8-0.3,1.5-0.8,2-1.3c1.1-1.3,1.7-2.9,1.6-4.6C340.4,234.3,339.7,232.6,338.8,231.4
		L338.8,231.4z M337.2,239.6c-0.7,0.8-1.7,1.3-2.9,1.2c-0.5,0-1.1-0.1-1.6-0.3c-0.5-0.3-0.9-0.5-1.3-0.9c-0.8-0.9-1.2-2.1-1.1-3.3
		c-0.1-1.2,0.3-2.5,1.1-3.4c0.4-0.4,0.8-0.8,1.3-0.9c0.5-0.3,1.1-0.3,1.6-0.3s1.1,0.1,1.6,0.3c0.5,0.3,0.9,0.5,1.3,0.9
		c0.7,1.1,1.1,2.2,1.1,3.4C338.4,237.4,338,238.6,337.2,239.6L337.2,239.6z M346.4,230.7c-0.7,0.5-1.1,1.2-1.2,2v-2.5h-2v12h2v-6.1
		c0-1.1,0.3-2.2,0.8-3.2c0.3-0.4,0.5-0.7,0.8-0.8c0.4-0.3,0.8-0.3,1.2-0.3c0.5,0,1.1,0.1,1.5,0.4v-2c-0.4-0.1-0.8-0.1-1.2-0.1
		C347.8,229.9,347,230.1,346.4,230.7z M361.2,235.5c0.1-1.6-0.4-3-1.3-4.2c-0.4-0.5-1.1-0.9-1.6-1.2s-1.3-0.4-2-0.4
		c-0.8,0-1.5,0.1-2.2,0.4c-0.7,0.3-1.3,0.8-1.8,1.3c-1.1,1.3-1.6,2.9-1.6,4.6c-0.1,1.7,0.4,3.3,1.5,4.6c0.5,0.5,1.2,0.9,1.8,1.3
		c0.7,0.3,1.5,0.4,2.2,0.4c1.5,0.1,2.9-0.3,4.2-1.2v-1.8c-1.1,0.8-2.4,1.3-3.7,1.3c-0.5,0-1.1,0-1.6-0.3s-0.9-0.5-1.3-0.8
		c-0.7-0.9-1.1-2-1.1-3h8.4v-1L361.2,235.5L361.2,235.5z M352.8,235c0.1-0.9,0.5-1.8,1.2-2.5c0.5-0.7,1.5-1.1,2.2-0.9
		c0.4,0,0.8,0,1.2,0.3c0.4,0.1,0.7,0.4,0.9,0.7c0.5,0.8,0.8,1.7,0.8,2.6L352.8,235z"/>
</g>
<g>
	<path class="st33" d="M96.2,181.6c0-1.6-0.3-3.1-1.1-4.3c-0.7-1.2-1.7-2.2-3.1-3c-11.5-6.6-23-13.2-34.5-19.9
		c-3.1-1.8-6.1-1.7-9.2,0.1c-4.6,2.7-27.5,15.8-34.3,19.8c-2.8,1.6-4.2,4.1-4.2,7.4c0,13.3,0,26.7,0,40c0,1.6,0.3,3,1,4.2
		c0.7,1.3,1.7,2.3,3.2,3.1c6.8,4,29.7,17.1,34.3,19.8c3.1,1.8,6.1,1.9,9.2,0.1c11.5-6.6,23-13.2,34.5-19.9c1.4-0.8,2.5-1.9,3.2-3.1
		c0.7-1.2,1-2.6,1-4.2C96.2,221.6,96.2,194.9,96.2,181.6"/>
	<path class="st34" d="M53.2,201.4l-42.3,24.4c0.7,1.3,1.7,2.3,3.2,3.1c6.8,4,29.7,17.1,34.3,19.8c3.1,1.8,6.1,1.9,9.2,0.1
		c11.5-6.6,23-13.2,34.5-19.9c1.4-0.8,2.5-1.9,3.2-3.1L53.2,201.4z"/>
	<path class="st35" d="M96.2,181.6c0-1.6-0.3-3.1-1.1-4.3l-42,24.2l42,24.4c0.7-1.2,1-2.6,1-4.2C96.2,221.6,96.2,194.9,96.2,181.6"
		/>
	<g>
		<path class="st13" d="M78.1,192.3v4.6h4.6v-4.6H85v4.6h4.6v2.3H85v4.6h4.6v2.3H85v4.6h-2.3V206h-4.6v4.6h-2.3V206h-4.6v-2.3h4.6
			v-4.6h-4.6v-2.3h4.6v-4.6h2.3V192.3z M82.6,199.1H78v4.6h4.6V199.1z"/>
		<path class="st13" d="M53.2,169.5c11.9,0,22.2,6.4,27.8,16l-0.1-0.1l-14,8c-2.8-4.7-7.8-7.8-13.6-7.9h-0.2c-8.8,0-16,7.2-16,16
			c0,2.8,0.7,5.5,2.1,7.9c2.8,4.8,7.9,8.1,13.9,8.1s11.2-3.3,13.9-8.1l-0.1,0.1l14,8.1c-5.5,9.5-15.7,15.9-27.5,16.1H53
			c-11.9,0-22.3-6.5-27.9-16.1c-2.7-4.7-4.3-10.2-4.3-16C21.1,183.8,35.5,169.5,53.2,169.5L53.2,169.5z"/>
	</g>
</g>
<g>
	<g>
		<g>
			<g>
				<defs>
					<rect id="SVGID_00000091017460131708803870000007886126261224074120_" x="393.3" y="171.2" width="65.9" height="65.9"/>
				</defs>
				<clipPath id="SVGID_00000032645493711726566880000003642400346950223541_">
					<use xlink:href="#SVGID_00000091017460131708803870000007886126261224074120_"  style="overflow:visible;"/>
				</clipPath>
				<g style="clip-path:url(#SVGID_00000032645493711726566880000003642400346950223541_);">
					<g>
						<g>
							<g>
								<g>
									<defs>
										<rect id="SVGID_00000083797901149794236780000007847889485810257539_" x="393.3" y="171.2" width="65.9" height="65.9"/>
									</defs>
									<clipPath id="SVGID_00000145050076397870113790000005452207271207262592_">
										<use xlink:href="#SVGID_00000083797901149794236780000007847889485810257539_"  style="overflow:visible;"/>
									</clipPath>
									<g style="clip-path:url(#SVGID_00000145050076397870113790000005452207271207262592_);">
										<g>
											<path class="st38" d="M405.4,226.9l-11-8.2c-0.3-0.3-0.6-0.6-0.8-1c-0.2-0.4-0.3-0.8-0.3-1.2v-24.7
												c0-0.4,0.1-0.8,0.3-1.2c0.2-0.4,0.5-0.7,0.8-1l11-8.2c-0.3,0.3-0.5,0.6-0.6,1s-0.2,0.8-0.1,1.2v41.2
												c-0.1,0.4,0,0.8,0.1,1.2C404.9,226.3,405.1,226.7,405.4,226.9z"/>
											<g>
												
													<linearGradient id="SVGID_00000091014774026416959000000006648906069340045744_" gradientUnits="userSpaceOnUse" x1="450.5282" y1="1764.3419" x2="401.6115" y2="1813.5757" gradientTransform="matrix(1 0 0 1 0 -1589.4872)">
													<stop  offset="0" style="stop-color:#7252AA"/>
													<stop  offset="1" style="stop-color:#7252AA"/>
												</linearGradient>
												<path style="fill:url(#SVGID_00000091014774026416959000000006648906069340045744_);" d="M458,182.7
													c-0.5-0.3-1-0.5-1.5-0.5c-0.4,0-0.7,0.1-1,0.2c-0.3,0.1-0.6,0.3-0.9,0.6l-0.2,0.2l-11.7,11.2l-10.2,9.8l-12.1,11.6
													l-11.2,10.7l-0.2,0.2c-0.2,0.2-0.5,0.4-0.9,0.6c-0.3,0.1-0.7,0.2-1,0.2c-0.6,0-1.2-0.2-1.6-0.5l-11-8.2
													c0.6,0.4,1.3,0.6,1.9,0.5c0.7-0.1,1.3-0.4,1.8-0.9l6.1-7.1l6-7l10-11.6l17.5-20.4c0.3-0.3,0.6-0.5,0.9-0.7
													c0.4-0.2,0.7-0.3,1.1-0.3c0.5,0,1.1,0.2,1.5,0.5L458,182.7z"/>
											</g>
											<g>
												
													<linearGradient id="SVGID_00000114075920664962330050000012084174331379534764_" gradientUnits="userSpaceOnUse" x1="402.2264" y1="1770.2952" x2="448.2026" y2="1821.761" gradientTransform="matrix(1 0 0 1 0 -1589.4872)">
													<stop  offset="0" style="stop-color:#AE7FE2"/>
													<stop  offset="1" style="stop-color:#9A70D4"/>
												</linearGradient>
												<path style="fill:url(#SVGID_00000114075920664962330050000012084174331379534764_);" d="M458,225.7l-16.5,11
													c-0.6,0.4-1.2,0.5-1.9,0.4c-0.7-0.1-1.3-0.4-1.7-0.9l-17.6-20.4l-10-11.6l-6-7l-6.1-7.1c-0.5-0.5-1.1-0.9-1.8-0.9
													c-0.7-0.1-1.4,0.1-1.9,0.5l11-8.2c0.5-0.4,1.1-0.5,1.6-0.5c0.4,0,0.7,0.1,1,0.2c0.3,0.1,0.6,0.3,0.9,0.6l0.2,0.2
													l11.2,10.7l12.1,11.6l10.3,9.8l11.7,11.2l0.2,0.2c0.2,0.2,0.5,0.4,0.9,0.6c0.3,0.1,0.7,0.2,1,0.2
													C457,226.1,457.5,226,458,225.7z"/>
											</g>
											<g>
												
													<linearGradient id="SVGID_00000054268137604118717110000003054108613769019565_" gradientUnits="userSpaceOnUse" x1="450.35" y1="1759.8333" x2="450.35" y2="1826.0737" gradientTransform="matrix(1 0 0 1 0 -1589.4872)">
													<stop  offset="0" style="stop-color:#D59DFF"/>
													<stop  offset="1" style="stop-color:#C18EF1"/>
												</linearGradient>
												<path style="fill:url(#SVGID_00000054268137604118717110000003054108613769019565_);" d="M459.2,184.9v38.4
													c0,0.5-0.1,0.9-0.3,1.3c-0.2,0.4-0.5,0.7-0.9,1l-16.5,11c0.4-0.3,0.7-0.6,0.9-1c0.2-0.4,0.3-0.8,0.3-1.3V174
													c0-0.5-0.1-0.9-0.3-1.3c-0.2-0.4-0.5-0.7-0.9-1l16.5,11c0.4,0.3,0.7,0.6,0.9,1C459.1,184,459.2,184.5,459.2,184.9z"/>
											</g>
										</g>
									</g>
								</g>
							</g>
						</g>
					</g>
				</g>
			</g>
		</g>
	</g>
</g>
<g>
	<path class="st42" d="M394.3,100.7c0,4.7,3.8,8.6,8.6,8.6h49.4c4.7,0,8.6-3.8,8.6-8.6V51.3c0-4.7-3.8-8.6-8.6-8.6h-49.4
		c-4.7,0-8.6,3.8-8.6,8.6V100.7L394.3,100.7z"/>
	<path class="st13" d="M421.9,72.2v-9.4h8.3c0.8,0,1.6,0.1,2.3,0.2c0.7,0.1,1.4,0.4,1.9,0.7c0.6,0.3,1,0.8,1.4,1.4
		c0.3,0.6,0.5,1.4,0.5,2.3c0,1.7-0.5,2.9-1.5,3.7c-1,0.8-2.3,1.1-3.9,1.1L421.9,72.2L421.9,72.2z M413,55.8v40.3h19.5
		c1.8,0,3.6-0.2,5.3-0.7c1.7-0.5,3.2-1.1,4.6-2.1c1.3-0.9,2.4-2.2,3.2-3.6c0.8-1.5,1.2-3.2,1.2-5.3c0-2.5-0.6-4.7-1.8-6.5
		c-1.2-1.8-3.1-3-5.6-3.8c1.8-0.9,3.2-2,4.1-3.3c0.9-1.4,1.4-3,1.4-5.1c0-1.9-0.3-3.5-0.9-4.7c-0.6-1.3-1.5-2.3-2.6-3.1
		c-1.1-0.8-2.5-1.3-4.1-1.7c-1.6-0.3-3.3-0.5-5.2-0.5L413,55.8L413,55.8z M421.9,89.3V78.2h9.7c1.9,0,3.5,0.4,4.6,1.3
		c1.2,0.9,1.7,2.4,1.7,4.4c0,1.1-0.2,1.9-0.5,2.6c-0.4,0.7-0.8,1.2-1.4,1.6s-1.3,0.7-2.1,0.8c-0.8,0.2-1.6,0.3-2.5,0.3L421.9,89.3
		L421.9,89.3z"/>
</g>
<g id="g3054" transform="translate(524,270.18109)">
	<polygon id="polygon3028" class="st43" points="-138.4,-245 -143.5,-188 -166.3,-181.7 -189.1,-188 -194.2,-245 	"/>
	<polygon id="polygon3030" class="st44" points="-166.3,-186.5 -147.8,-191.6 -143.5,-240.3 -166.3,-240.3 	"/>
	<polygon id="polygon3032" class="st45" points="-176.2,-226.3 -166.3,-226.3 -166.3,-233.3 -166.3,-233.3 -183.8,-233.3 
		-183.6,-231.4 -181.9,-212.2 -166.3,-212.2 -166.3,-219.2 -175.5,-219.2 	"/>
	<polygon id="polygon3034" class="st45" points="-174.6,-208.7 -178.4,-208.7 -181.6,-208.7 -180.6,-197.7 -166.3,-193.8 
		-166.3,-193.8 -166.3,-201 -166.3,-201 -174.1,-203.1 	"/>
	<path id="path3036" d="M-189-260.4h3.6v3.5h3.2v-3.5h3.6v10.6h-3.6v-3.6h-3.2v3.6h-3.6V-260.4L-189-260.4z"/>
	<path id="path3038" d="M-174-256.9h-3.1v-3.5h9.8v3.5h-3.1v7.1h-3.6L-174-256.9L-174-256.9z"/>
	<path id="path3040" d="M-165.7-260.4h3.7l2.3,3.7l2.3-3.7h3.7v10.6h-3.5v-5.3l-2.4,3.8h-0.1l-2.4-3.8v5.3h-3.5L-165.7-260.4
		L-165.7-260.4z"/>
	<path id="path3042" d="M-152-260.4h3.6v7.1h5v3.5h-8.5v-10.6H-152z"/>
	<polygon id="polygon3044" class="st13" points="-166.3,-212.2 -157.7,-212.2 -158.5,-203.1 -166.3,-201 -166.3,-193.8 -152,-197.7 
		-151.9,-198.9 -150.2,-217.3 -150.1,-219.2 -152,-219.2 -166.3,-219.2 	"/>
	<polygon id="polygon3046" class="st13" points="-166.3,-226.3 -166.3,-226.3 -149.5,-226.3 -149.5,-226.3 -149.4,-226.3 
		-149.3,-227.9 -149,-231.4 -148.8,-233.3 -166.3,-233.3 -166.3,-229 	"/>
</g>
<g id="g3013" transform="translate(95.428571,270.18109)">
	<polygon id="polygon2989" class="st46" points="183,-173.7 157.7,-180.7 152,-244 214,-244 208.3,-180.7 	"/>
	<polygon id="polygon2991" class="st47" points="203.5,-184.8 208.3,-238.8 183,-238.8 183,-179.1 	"/>
	<polygon id="polygon2993" class="st45" points="165,-215.4 165.6,-207.6 183,-207.6 183,-215.4 	"/>
	<polygon id="polygon2995" class="st45" points="163.6,-231.1 164.3,-223.3 183,-223.3 183,-231.1 183,-231.1 	"/>
	<polygon id="polygon2997" class="st45" points="183,-195.2 183,-195.2 174.3,-197.5 173.8,-203.7 169.6,-203.7 166,-203.7 
		167.1,-191.5 183,-187.1 183,-187.1 	"/>
	<path id="path2999" d="M166.6-261.2h9.4v3.9h-5.5v3.9h5.5v3.9h-9.4V-261.2z"/>
	<path id="path3001" d="M177.9-261.2h9.4v3.4h-5.5v0.7h5.5v7.9h-9.4v-3.6h5.5v-0.7h-5.5V-261.2z"/>
	<path id="path3003" d="M189.2-261.2h9.4v3.4h-5.5v0.7h5.5v7.9h-9.4v-3.6h5.5v-0.7h-5.5V-261.2z"/>
	<polygon id="polygon3005" class="st13" points="201,-215.4 202.4,-231.1 183,-231.1 183,-223.3 193.9,-223.3 193.2,-215.4 
		183,-215.4 183,-207.6 192.5,-207.6 191.6,-197.5 183,-195.2 183,-187.1 198.9,-191.5 199,-192.8 200.8,-213.3 	"/>
</g>
<g id="layer1" transform="translate(-326.59295,-168.33349)">
	<g id="g8487" transform="translate(-202.57553,-38.463711)">
		<g id="g3652" transform="matrix(1.25,0,0,1.25,-2.5065195,174.1722)">
			<path id="path3654" class="st48" d="M596.1,34.3c0.6,0,1.2,0,1.8,0c0,0.3,0,1,0,1.3c-0.6,0-1.2,0-1.9,0
				C596.1,35.3,596.1,34.6,596.1,34.3z"/>
		</g>
		<path id="path3664" class="st49" d="M696.5,217.4c1.4,0,2.8,0,4.2,0c-0.1,2.5,0.4,5.1-0.3,7.5c-0.9,1.7-3.2,1.4-4.8,1.4
			c-0.1-0.6-0.1-1.1-0.2-1.7c0.9-0.1,1.9,0.1,2.8-0.4c0.6-1.7,0.3-3.6,0.2-5.3c-0.5,0-1.4,0-1.9,0
			C696.4,218.6,696.5,217.8,696.5,217.4L696.5,217.4z"/>
		<path id="path3666" class="st49" d="M724.3,218c1.6-1.3,3.8-0.7,5.6-0.3c0,0.5,0,1.4,0,1.9c-1.4-0.6-4.1-1.8-4.4,0.5
			c1.3,0.4,2.7,0.6,4,1.4c1.3,1,0.9,3.4-0.6,4.1c-1.7,1-3.7,0.5-5.5,0.1c-0.1-0.7-0.2-1.5-0.3-2.2c1.5,0.7,4.5,2.2,5-0.3
			c-1.5-0.6-3.4-0.6-4.5-1.9C723.1,220.3,723.2,218.7,724.3,218L724.3,218z"/>
		<path id="path3668" class="st49" d="M754.1,217.7c0.6,0,1.3,0,1.9,0c0,0.6,0,1.2,0.1,1.8c0.5,0,1.5,0,2,0c0,0.4,0,1.1,0,1.5
			c-0.5,0-1.5,0-2,0c0,1.2-0.3,2.6,0.3,3.7c0.5,0,1.4,0.1,1.9,0.2c0,2.3-2.6,1.2-4,0.9c-0.1-1.4-0.2-2.8-0.2-4.2
			c-0.4-0.5-0.7-1-1-1.5c0.3-0.2,0.8-0.7,1.1-1C754.1,218.8,754.1,218,754.1,217.7L754.1,217.7z"/>
		<path id="path3670" class="st49" d="M702.3,219.6c1.8-0.1,4.2-0.7,5.3,1.1c0.4,1.8,0.1,3.7,0.2,5.5c-0.8-0.1-1.6-0.1-2.4-0.2
			c-0.9,0.1-1.9,0.7-2.8,0.1c-1.4-0.7-1.4-3.1,0-3.7c1-0.4,2.2-0.5,3.3-0.8c-1-1.1-2.5-0.7-3.8-0.5
			C702.3,220.7,702.3,219.9,702.3,219.6 M704.1,223.3c-0.1,0.5-0.1,1-0.2,1.6c0.6,0,1.2-0.1,1.8-0.1c0-0.6,0.1-1.1,0.1-1.7
			C705.2,223.1,704.6,223.2,704.1,223.3z"/>
		<path id="path3672" class="st49" d="M708.7,219.4c0.5,0.1,1.6,0.3,2.1,0.4c0.5,1.3,0.9,2.6,1.4,3.8c0.4-1.3,0.9-2.7,1.3-4.1
			c0.5,0,1.6,0,2.1,0c-0.7,2.3-1.6,4.6-2.5,6.9c-0.7-0.1-1.4-0.2-2.1-0.4C710,223.8,709.3,221.6,708.7,219.4L708.7,219.4z"/>
		<path id="path3674" class="st49" d="M716.2,221.1c0.2-0.5,0.3-1,0.5-1.5c1.7-0.2,3.9-0.6,5.1,1c0.4,1.9,0.2,3.8,0.2,5.7
			c-0.8-0.1-1.6-0.2-2.4-0.3c-1.4,0.8-3.8,0.5-3.7-1.5c-0.3-2.4,2.7-2.4,4.3-2.7C719.2,220.4,717.5,221.1,716.2,221.1 M718.2,223.3
			c-0.1,0.5-0.1,1-0.2,1.5c0.6,0,1.2,0,1.8,0c0.1-0.6,0.1-1.2,0.2-1.8C719.3,223.1,718.7,223.2,718.2,223.3L718.2,223.3z"/>
		<path id="path3676" class="st49" d="M730.6,222.9c-0.2-2.9,3.6-4.5,5.8-2.9c0.1,0.4,0.2,1.3,0.2,1.7c-1-0.3-2.1-1.1-3.2-0.6
			c-1.2,1.1-0.9,3.9,1.1,3.8c0.5-0.2,1.6-0.5,2.2-0.7c-0.1,0.5-0.3,1.4-0.4,1.9C734,227.1,730.5,225.8,730.6,222.9L730.6,222.9z"/>
		<path id="path3678" class="st49" d="M737.5,219.4c0.8,0.2,1.6,0.4,2.5,0.7c0.6-0.2,1.2-0.4,1.8-0.7c0,0.5,0.1,1.6,0.1,2.1
			c-0.8,0-1.6,0.1-2.3,0.1c-0.1,1.5-0.1,3.1-0.1,4.6c-0.5,0-1.5,0-2,0C737.5,223.9,737.5,221.6,737.5,219.4L737.5,219.4z"/>
		<path id="path3680" class="st49" d="M746.3,219.5c1.5,0.3,3,0.2,4.5-0.1c2.3,0.5,2.4,3.8,1.5,5.5c-0.7,1.5-2.5,1.3-3.9,1.3
			c0,0.8,0,1.6,0,2.4c-0.5,0-1.6,0-2.1,0C746.3,225.5,746.3,222.5,746.3,219.5 M748.4,221.1c0,1.3,0,2.5,0,3.8
			c0.7-0.2,1.5-0.1,2-0.6c0.4-1,0.1-2.1,0-3.2C749.8,221.1,749.1,221.1,748.4,221.1L748.4,221.1z"/>
		<g id="g3688" transform="matrix(1.25,0,0,1.25,-2.5065195,174.1722)">
			<path id="path3690" class="st49" d="M596.2,36.3c0.4,0,1.2,0,1.5,0c0,1.8,0,3.6,0,5.3c-0.4,0-1.1,0-1.5,0
				C596.2,39.8,596.2,38.1,596.2,36.3z"/>
		</g>
		<g id="g3768" transform="matrix(1.25,0,0,1.25,-2.5065195,174.1722)">
			<path id="path3770" class="st50" d="M564.2,45.1c4.3-0.2,8.6,0.1,12.9,0c4.8-0.2,9.5,0,14.3,0c3.8,0,7.5,0,11.3,0
				c-1.2,13.1-2.4,26.2-3.5,39.3c-5.1,1.4-10.1,2.9-15.2,4.3c-0.6,0.3-1.3,0-1.9-0.2c-4.8-1.4-9.6-2.8-14.4-4.1
				C566.4,71.3,565.3,58.2,564.2,45.1 M583.5,48.5c-0.2,6.5,0,12.9-0.1,19.4c0,5.9-0.1,11.8,0.1,17.7c4.2-1,8.4-2.2,12.6-3.4
				c1.1-11.2,2.1-22.4,3-33.7C593.9,48.5,588.7,48.5,583.5,48.5 M578.1,73.7c-2.5-0.7-5-1.5-7.5-2c-0.1,1.5,0,3,0.1,4.5
				c3.7,0.9,7.3,2.1,11,3c0-8.6,0-17.1,0-25.7c-1.2,0-2.4,0-3.6-0.1C578,60.2,578.2,67,578.1,73.7L578.1,73.7z"/>
		</g>
		<g id="g3796" transform="matrix(1.25,0,0,1.25,-2.5065195,174.1722)">
			<path id="path3798" class="st51" d="M583.5,48.5c5.2,0,10.4,0,15.6,0c-0.9,11.2-1.9,22.4-3,33.7c-4.2,1.2-8.4,2.4-12.6,3.4
				c-0.2-5.9,0-11.8-0.1-17.7C583.5,61.4,583.3,55,583.5,48.5 M585,53.5c0,5.6,0,11.1,0,16.7c2.5-0.4,5.1-0.9,7.6-1.3
				c0,1.3-0.1,2.6-0.1,3.9c-2.5,0.7-4.9,1.3-7.4,1.9c0,1.5,0,3,0,4.5c3.1-0.7,6.2-1.6,9.3-2.4c0.4-0.2,1.1-0.2,1.1-0.8
				c0.4-4,0.6-8,1-12c-2.6,0.2-5.1,0.6-7.7,0.8c0-2.3,0-4.5,0-6.8c2.7,0,5.4,0,8.1,0c0.2-1.5,0.3-3,0.4-4.6
				C593.2,53.5,589.1,53.4,585,53.5L585,53.5z"/>
		</g>
		<path id="path3806" class="st45" d="M720.1,266.3c0.1-8.4-0.1-16.9,0.1-25.3c1.5,0,3,0.1,4.5,0.1c0,10.7,0,21.4,0,32.1
			c-4.6-1.1-9.2-2.6-13.8-3.7c-0.2-1.9-0.2-3.7-0.2-5.6C713.9,264.5,717,265.5,720.1,266.3z"/>
	</g>
</g>
<g>
	<g>
		<g>
			<defs>
				<rect id="SVGID_00000086686731140728135160000016483133803306561465_" x="84.1" y="15.5" width="60" height="80"/>
			</defs>
			<clipPath id="SVGID_00000138544055629630525570000008377587609010960055_">
				<use xlink:href="#SVGID_00000086686731140728135160000016483133803306561465_"  style="overflow:visible;"/>
			</clipPath>
			<g style="clip-path:url(#SVGID_00000138544055629630525570000008377587609010960055_);">
				<g>
					<g>
						<defs>
							<rect id="SVGID_00000018956892587861801000000008619077118071226528_" x="84.1" y="15.5" width="60" height="80"/>
						</defs>
						<clipPath id="SVGID_00000137117176942443473550000004384104365166944684_">
							<use xlink:href="#SVGID_00000018956892587861801000000008619077118071226528_"  style="overflow:visible;"/>
						</clipPath>
						<g style="clip-path:url(#SVGID_00000137117176942443473550000004384104365166944684_);">
							<g>
								<defs>
									<rect id="SVGID_00000070077106385497613680000001118307631435219620_" x="84.1" y="15.5" width="60" height="80"/>
								</defs>
								<clipPath id="SVGID_00000047044988017834147730000015762310896925303212_">
									<use xlink:href="#SVGID_00000070077106385497613680000001118307631435219620_"  style="overflow:visible;"/>
								</clipPath>
								<g style="clip-path:url(#SVGID_00000047044988017834147730000015762310896925303212_);">
									
										<use xlink:href="#A"  width="60" height="80" x="-30" y="-40" transform="matrix(1 0 0 1 114.1166 55.4827)" style="overflow:visible;"/>
								</g>
							</g>
						</g>
					</g>
				</g>
			</g>
		</g>
	</g>
</g>
<g>
	<path class="st54" d="M50.4,116.7c-1.3,0-2.3,0.4-3.1,1.1c-0.8,0.8-1.2,1.8-1.2,3c0,0.6,0.1,1.2,0.3,1.7s0.5,1,0.9,1.5
		c0.4,0.4,1.2,1,2.5,1.8c1.5,0.9,2.5,1.7,3,2.3c0.5,0.6,0.7,1.2,0.7,1.8c0,0.9-0.3,1.5-0.9,2.1c-0.6,0.5-1.4,0.8-2.3,0.8
		c-1,0-1.9-0.4-2.7-1.1c-0.8-0.7-1.1-1.7-1.2-2.8H46v4.3h0.5c0.1-0.4,0.3-0.6,0.6-0.6c0.1,0,0.4,0.1,0.9,0.2c1.1,0.4,2,0.6,2.8,0.6
		c1.2,0,2.3-0.4,3.2-1.3c0.9-0.9,1.3-1.9,1.3-3.2c0-1-0.3-1.8-0.9-2.6c-0.6-0.7-1.7-1.6-3.4-2.6c-1.4-0.9-2.4-1.6-2.8-2.1
		c-0.4-0.5-0.7-1.2-0.7-1.8c0-0.7,0.3-1.3,0.8-1.7c0.5-0.4,1.2-0.6,2.1-0.6c1,0,1.8,0.3,2.4,0.9c0.6,0.6,1,1.4,1.1,2.4h0.5v-3.7H54
		c-0.1,0.2-0.1,0.3-0.1,0.4s-0.1,0.1-0.3,0.1s-0.4-0.1-0.8-0.2C51.9,116.8,51.1,116.7,50.4,116.7L50.4,116.7z M65.8,116.7
		c-1.6,0-3,0.4-4.3,1.1s-2.3,1.8-3,3.1c-0.7,1.3-1.1,2.7-1.1,4.1c0,2,0.6,3.7,1.9,5.3c1.3,1.5,2.9,2.5,4.7,2.9
		c0.4,0.2,1,0.8,1.8,1.7c0.9,1,1.6,1.8,2.2,2.2s1.3,0.8,2,1s1.4,0.3,2.3,0.3c1,0,1.9-0.2,2.6-0.5l-0.2-0.4c-0.4,0.2-0.9,0.2-1.4,0.2
		c-0.7,0-1.4-0.2-2.1-0.7s-1.6-1.3-2.6-2.6c-0.5-0.6-0.8-1-1-1.2c2-0.4,3.6-1.3,4.9-2.9c1.3-1.5,1.9-3.3,1.9-5.3
		c0-2.3-0.8-4.3-2.5-5.9C70.3,117.5,68.3,116.7,65.8,116.7L65.8,116.7z M75.5,116.7v0.5c1,0,1.6,0.3,1.7,0.9c0,0.2,0.1,0.6,0.1,1.2
		v11.2c0,0.8-0.1,1.4-0.4,1.6c-0.2,0.2-0.6,0.4-1.2,0.4v0.5H86l0.3-2.5h-0.5c-0.1,0.7-0.4,1.2-0.9,1.5s-1.4,0.4-2.6,0.4h-1
		c-1.1,0-1.8-0.4-2-1.2c0-0.2,0-0.3,0-0.5v-11.3c0-0.8,0.1-1.4,0.3-1.7c0.2-0.3,0.6-0.4,1.2-0.5v-0.5H75.5L75.5,116.7z M66,117.3
		c1.8,0,3.2,0.7,4.3,2.1c1.1,1.4,1.7,3.3,1.7,5.7c0,2.3-0.6,4.1-1.7,5.5c-1.1,1.4-2.6,2.1-4.5,2.1c-1.8,0-3.2-0.7-4.3-2.1
		c-1.1-1.4-1.6-3.3-1.6-5.6c0-2.3,0.6-4.2,1.7-5.6C62.7,118,64.1,117.3,66,117.3L66,117.3z M89.8,119.7c-0.3,0-0.4,0.1-0.6,0.3
		c-0.1,0.2-0.2,0.4-0.1,0.6c0,0.2,0.2,0.5,0.4,0.6c0.2,0.2,0.5,0.3,0.7,0.3s0.4-0.1,0.6-0.3c0.1-0.2,0.2-0.4,0.1-0.6
		c-0.1-0.3-0.2-0.5-0.4-0.6C90.3,119.8,90.1,119.7,89.8,119.7L89.8,119.7z M96.6,121.4c-0.4,1.6-1.4,2.5-2.8,2.7v0.5h1.7v5.6
		c0,1,0,1.6,0.1,1.9c0.2,0.8,0.7,1.2,1.5,1.2c1.2,0,2.5-0.7,3.9-2.2l-0.4-0.3c-1,1-1.8,1.5-2.6,1.5c-0.5,0-0.7-0.3-0.9-0.8
		c0-0.1,0-0.3,0-0.4v-6.3h2.5V124h-2.5v-2.4h-0.5C96.6,121.6,96.6,121.4,96.6,121.4z M106.5,123.5c-1.4,0-2.6,0.7-3.5,2.1
		s-1.2,2.9-0.8,4.6c0.2,1,0.6,1.7,1.3,2.3c0.6,0.5,1.4,0.8,2.4,0.8c0.9,0,2.1-0.2,2.7-0.7c0.5-0.5,1-1.2,1.5-2.2l-0.4-0.4
		c-0.7,1.3-2.1,2-3.2,2c-1.5,0-2.4-0.8-2.7-2.4c0-0.2-0.1-0.4-0.1-0.7c1.8-0.3,3.1-0.8,4-1.5s1.8-1.5,1.6-2.3
		c-0.1-0.5-0.3-0.9-0.7-1.1C108,123.7,107,123.5,106.5,123.5L106.5,123.5z M90.9,123.6l-3.1,0.7v0.5l1.1-0.1c0.5,0,0.8,0.2,0.9,0.7
		c0,0.2,0.1,0.4,0.1,0.6v5c0,0.7-0.1,1.1-0.2,1.2c-0.2,0.1-0.6,0.2-1.2,0.2v0.5h4.9v-0.5c-0.7,0-1.1-0.1-1.3-0.2
		c-0.2-0.1-0.3-0.3-0.4-0.6c0-0.2-0.1-0.6-0.1-1.1v-7.1h-0.7C90.9,123.4,90.9,123.6,90.9,123.6z M105.7,124.5c0.3,0,0.6,0.1,0.9,0.3
		c0.3,0.2,0.5,0.5,0.5,0.7c0.3,1.3-0.9,2.3-3.6,2.8c-0.1-1,0.1-1.9,0.5-2.7C104.5,124.9,105,124.5,105.7,124.5L105.7,124.5z"/>
	<path class="st55" d="M43.5,97.5H17.1c-1.8,0-3.2,1.4-3.2,3.2v29.1c0,1.8,1.4,3.2,3.2,3.2h17.4C34.3,124.4,37.3,107.7,43.5,97.5
		L43.5,97.5z"/>
	
		<linearGradient id="SVGID_00000107568032560313362810000009583177888887577493_" gradientUnits="userSpaceOnUse" x1="-2868.4409" y1="-11.118" x2="-2868.4409" y2="-11.0824" gradientTransform="matrix(721.3655 0 0 761.6777 2069223 8567.3926)">
		<stop  offset="0" style="stop-color:#97D9F6"/>
		<stop  offset="0.9202" style="stop-color:#0F80CC"/>
		<stop  offset="1" style="stop-color:#0F80CC"/>
	</linearGradient>
	<path style="fill:url(#SVGID_00000107568032560313362810000009583177888887577493_);" d="M42.6,98.5H17.1c-1.3,0-2.3,1-2.3,2.3v27
		c5.8-2.2,14.4-4.1,20.4-4C36.4,117.4,40,105.1,42.6,98.5L42.6,98.5z"/>
	<path class="st54" d="M49.7,96.6c-1.8-1.6-4-1-6.2,1c-0.3,0.3-0.6,0.6-1,0.9c-3.7,3.9-7.1,11.2-8.2,16.7c0.4,0.8,0.7,1.9,1,2.7
		c0.1,0.2,0.1,0.4,0.1,0.6c0.1,0.4,0.1,0.7,0.1,0.7s0-0.1-0.2-0.5c0-0.1-0.1-0.2-0.1-0.3c0,0,0-0.1-0.1-0.1
		c-0.2-0.6-0.9-1.7-1.2-2.3c-0.2,0.7-0.5,1.4-0.7,2.1c0.8,1.6,1.4,4.2,1.4,4.2s0-0.2-0.3-0.8c-0.2-0.5-1.1-2.2-1.4-2.6
		c-0.4,1.4-0.5,2.4-0.4,2.6c0.3,0.4,0.5,1.2,0.7,2.1c0.5,1.9,0.8,4.3,0.8,4.3s0,0.2,0,0.4c-0.1,1.6,0,3.3,0.1,4.8
		c0.2,2,0.5,3.7,0.9,4.7l0.3-0.1c-0.6-1.8-0.8-4.2-0.7-7c0.2-4.2,1.1-9.3,2.9-14.6c3-8,7.2-14.4,11-17.4c-3.5,3.2-8.2,13.4-9.6,17.2
		c-1.6,4.2-2.7,8.2-3.4,12c1.2-3.6,4.9-5.1,4.9-5.1s1.9-2.3,4-5.5c-1.3,0.3-3.4,0.8-4.1,1.1c-1.1,0.4-1.3,0.6-1.3,0.6s3.4-2.1,6.3-3
		C49.7,109.5,54.1,100.5,49.7,96.6"/>
</g>
<g>
	<path d="M71.2,58.4c-0.4-1.1-1.3-1.9-2.5-2c-0.6-0.1-1.2,0-2,0.1c-1.4,0.3-2.4,0.4-3.1,0.4c2.8-4.7,5.1-10.1,6.4-15.2
		c2.1-8.2,1-11.9-0.3-13.6c-3.5-4.5-8.6-6.9-14.8-7c-3.3,0-6.2,0.6-7.7,1.1c-1.4-0.2-2.9-0.4-4.5-0.4c-3,0-5.6,0.6-7.8,1.9
		c-1.2-0.4-3.2-1-5.5-1.4c-5.4-0.9-9.8-0.2-12.9,2.1c-3.9,2.7-5.6,7.5-5.3,14.1c0.1,2.1,1.3,8.5,3.1,14.5c1.1,3.5,2.2,6.4,3.4,8.6
		c1.7,3.1,3.4,5,5.4,5.7c1.1,0.4,3.2,0.6,5.3-1.1c0.3,0.3,0.6,0.7,1.1,1c0.6,0.4,1.4,0.7,2.1,0.9c2.7,0.7,5.2,0.5,7.3-0.4
		c0,0.4,0,0.7,0,1.1c0,0.5,0,1,0,1.5c0.1,3.2,0.3,5.6,1,7.3c0,0.1,0.1,0.2,0.1,0.4c0.3,1,0.8,2.6,2.2,3.9s3.1,1.7,4.6,1.7
		c0.8,0,1.5-0.1,2.2-0.2c2.3-0.5,5-1.3,6.9-4c1.8-2.6,2.7-6.4,2.8-12.5c0-0.2,0-0.3,0.1-0.5v-0.3h0.4h0.1c2.4,0.1,5.3-0.4,7-1.2
		C67.8,64,72.3,61.7,71.2,58.4"/>
	<path class="st57" d="M67.2,59.1c-7,1.5-7.5-0.9-7.5-0.9c7.4-11,10.5-25,7.9-28.4c-7.3-9.3-20-4.9-20.2-4.8h-0.1
		c-1.4-0.3-2.9-0.5-4.7-0.5c-3.2-0.1-5.6,0.8-7.4,2.2c0,0-22.6-9.3-21.5,11.7c0.2,4.5,6.4,33.8,13.8,24.9c2.7-3.2,5.3-6,5.3-6
		c1.3,0.9,2.8,1.3,4.5,1.1l0.1-0.1c0,0.4,0,0.8,0.1,1.3c-1.9,2.1-1.3,2.5-5.1,3.3s-1.6,2.2-0.1,2.6c1.8,0.4,5.9,1.1,8.7-2.8L40.7,63
		c0.7,0.6,1.3,3.9,1.2,6.8c-0.1,3-0.1,5,0.4,6.6c0.6,1.6,1.2,5.2,6.2,4.1c4.2-0.9,6.3-3.2,6.6-7.1c0.2-2.7,0.7-2.3,0.7-4.8l0.4-1.2
		c0.4-3.7,0.1-4.9,2.6-4.4l0.6,0.1c1.9,0.1,4.4-0.3,5.8-1C68.4,60.9,70.3,58.4,67.2,59.1L67.2,59.1"/>
	<path class="st13" d="M36.5,40.3c-0.6-0.1-1.2,0-1.5,0.2c-0.2,0.1-0.2,0.3-0.2,0.4c0,0.3,0.1,0.6,0.3,0.7c0.3,0.4,0.8,0.7,1.2,0.8
		c0.1,0,0.1,0,0.2,0c0.8,0,1.5-0.6,1.5-1C38.1,40.8,37.3,40.4,36.5,40.3 M57.5,40.4c-0.1-0.4-0.8-0.6-1.6-0.5
		c-0.7,0.1-1.4,0.4-1.4,0.9c0,0.3,0.7,0.9,1.4,0.9c0.1,0,0.1,0,0.2,0c0.5-0.1,0.8-0.4,1-0.5C57.4,40.9,57.5,40.6,57.5,40.4"/>
	<path class="st13" d="M69.5,58.9c-0.3-0.8-1.1-1.1-2.6-0.8c-4.3,0.9-5.8,0.3-6.3-0.1c3.3-5,6-11.1,7.5-16.8
		c0.7-2.7,1.1-5.2,1.1-7.2c0-2.2-0.3-3.9-1.1-4.9c-3.2-4-7.8-6.2-13.5-6.3c-3.9,0-7.1,0.9-7.8,1.2c-1.3-0.3-2.8-0.5-4.4-0.6
		c-2.9,0-5.4,0.6-7.5,2.1c-0.9-0.3-3.2-1.1-6.1-1.6c-4.9-0.8-8.9-0.2-11.7,1.8c-3.3,2.4-4.9,6.6-4.6,12.6c0.1,2,1.2,8.2,3.1,14.1
		c2.4,7.8,5,12.2,7.7,13.1c0.3,0.1,0.7,0.2,1.1,0.2c1,0,2.2-0.4,3.5-2c1.5-1.9,3.1-3.7,4.8-5.4c1.1,0.6,2.2,0.9,3.4,0.9v0.1
		c-0.2,0.2-0.4,0.5-0.6,0.8c-0.8,1.1-1,1.3-3.7,1.8c-0.8,0.2-2.8,0.6-2.8,2c0,1.6,2.4,2.2,2.7,2.3c1,0.2,1.9,0.4,2.8,0.4
		c2.2,0,4-0.7,5.6-2.1c0,5.5,0.2,11,0.8,12.6c0.5,1.4,1.9,4.7,6.1,4.7c0.6,0,1.3-0.1,2-0.2c4.4-0.9,6.3-2.9,7-7.1
		c0.4-2.3,1.1-7.7,1.4-10.6c0.7,0.2,1.5,0.3,2.5,0.3c1.9,0,4.2-0.4,5.6-1.1C67.2,62.3,70,60.5,69.5,58.9L69.5,58.9z M59.1,39.2
		c0,0.9-0.1,1.6-0.3,2.5c-0.1,0.9-0.3,1.8-0.3,2.9c0,1.1,0.1,2.2,0.2,3.3c0.3,2.2,0.5,4.4-0.5,6.6c-0.2-0.3-0.3-0.6-0.5-0.9
		c-0.1-0.3-0.4-0.8-0.8-1.5c-1.5-2.7-5.1-9.1-3.2-11.7C54.3,39.5,55.7,38.7,59.1,39.2L59.1,39.2z M54.9,24.6c5,0.1,9,2,11.9,5.6
		c2.2,2.8-0.2,15.4-7.1,26.2c-0.1-0.1-0.1-0.2-0.2-0.3L59.4,56c1.8-2.9,1.4-5.9,1.1-8.5c-0.1-1.1-0.2-2.1-0.2-3c0-1,0.2-1.9,0.3-2.7
		c0.2-1,0.3-2.1,0.3-3.3c0-0.1,0-0.3,0-0.5c-0.1-1.2-1.5-4.8-4.3-8c-1.5-1.8-3.7-3.7-6.8-5.1C51.2,24.8,52.9,24.5,54.9,24.6
		L54.9,24.6z M26.7,62.6c-1.4,1.7-2.4,1.4-2.7,1.3c-2.1-0.7-4.5-5.1-6.6-12c-1.8-6-2.9-12-3-13.7c-0.3-5.3,1-9.1,3.8-11.1
		c4.6-3.3,12.1-1.3,15.2-0.3l-0.1,0.1c-5,5-4.9,13.6-4.8,14.1c0,0.2,0,0.5,0,0.9c0.1,1.4,0.2,4.1-0.2,7.2c-0.4,2.8,0.5,5.6,2.4,7.6
		c0.2,0.2,0.4,0.4,0.6,0.6C30.5,58.2,28.7,60.3,26.7,62.6L26.7,62.6z M32,55.5c-1.5-1.6-2.2-3.9-1.9-6.1c0.4-3.2,0.3-6,0.2-7.5
		c0-0.2,0-0.4,0-0.5c0.7-0.6,4.1-2.4,6.5-1.9c1.1,0.3,1.8,1,2,2.3c1.4,6.6,0.2,9.4-0.8,11.6c-0.2,0.5-0.4,0.9-0.6,1.3L37.3,55
		c-0.3,0.9-0.6,1.7-0.8,2.5C34.8,57.5,33.2,56.8,32,55.5L32,55.5z M32.3,64.5c-0.5-0.1-0.9-0.3-1.2-0.5c0.2-0.1,0.6-0.2,1.2-0.4
		c3.2-0.6,3.6-1.1,4.7-2.5c0.2-0.3,0.5-0.7,0.9-1.1l0,0c0.6-0.6,0.8-0.5,1.3-0.3c0.4,0.2,0.8,0.6,0.9,1.2c0.1,0.2,0.2,0.7-0.1,1.1
		C37.8,65.1,34.6,65.1,32.3,64.5z M48.8,79.9c-3.9,0.8-5.2-1.1-6.1-3.4c-0.6-1.5-0.9-8-0.7-15.2c0-0.1,0-0.2,0-0.3
		c0-0.2-0.1-0.3-0.1-0.5c-0.3-1.1-1-1.9-1.9-2.3c-0.3-0.1-1-0.4-1.8-0.2c0.2-0.7,0.5-1.4,0.8-2.3l0.1-0.3c0.1-0.4,0.3-0.8,0.5-1.2
		c1-2.3,2.5-5.5,0.9-12.7c-0.6-2.7-2.5-4-5.5-3.7c-1.8,0.2-3.4,0.9-4.2,1.3c-0.2,0.1-0.3,0.2-0.5,0.3c0.2-2.7,1.1-7.8,4.3-11
		c2-2,4.7-3,7.9-3c6.4,0.1,10.5,3.4,12.9,6.1c2,2.4,3.1,4.7,3.5,6c-3.3-0.3-5.5,0.3-6.6,1.9c-2.4,3.5,1.3,10.3,3.1,13.5
		c0.3,0.6,0.6,1.1,0.7,1.3c0.6,1.4,1.4,2.4,1.9,3.1c0.2,0.2,0.3,0.4,0.5,0.6c-1,0.3-2.8,0.9-2.6,4.2c-0.1,1.6-1.1,9.4-1.5,12.1
		C53.8,77.7,52.5,79.1,48.8,79.9L48.8,79.9z M64.9,61.4c-1,0.5-2.7,0.8-4.3,0.9c-1.8,0.1-2.7-0.2-2.9-0.4c-0.1-2,0.7-2.3,1.5-2.5
		c0.1,0,0.2-0.1,0.4-0.1c0.1,0.1,0.2,0.1,0.2,0.2c1.4,0.9,4,1,7.5,0.3l0,0C66.9,60.3,66,60.9,64.9,61.4L64.9,61.4z"/>
</g>
<g>
	<path class="st58" d="M435.9,149.9c0,0,0-4.2,0-9.3v-9.3h3v1.9c0,1.1,0,1.9,0,1.9c0,0,0.1-0.2,0.2-0.4c0.4-1,0.9-1.9,1.7-2.6
		c0.3-0.3,0.7-0.6,1.1-0.8c0.4-0.2,0.8-0.3,1.3-0.4c0.3,0,0.5,0,1,0c0.6,0,1,0.1,1.4,0.2l0.1,0v3.1l-0.4-0.2c-0.6-0.3-1.3-0.5-2-0.4
		c-0.5,0-0.8,0.1-1.2,0.2c-0.4,0.1-0.8,0.3-1.1,0.6c-0.3,0.3-0.6,0.6-0.8,0.9c-0.7,1.1-1.1,2.3-1.3,3.6c0,0.2,0,2,0,5.6l0,5.2h-1.5
		C436.5,149.9,435.9,149.9,435.9,149.9L435.9,149.9 M395.5,149.5V149l11-15.1l-10,0l0-1.3l0-1.3h14.4v0.9l-5.5,7.6
		c-3,4.2-5.5,7.6-5.5,7.6c0,0,2.4,0,5.4,0h5.4v2.5h-15.3V149.5z M387.3,139.9c0,0-0.9-2.5-2-5.6c-2.1-5.7-2.2-6-2.4-7
		c-0.1-0.4-0.1-0.4-0.2,0c-0.1,0.4-0.2,0.8-0.3,1.3c-0.1,0.2-1,2.8-2.1,5.8c-0.7,1.8-1.3,3.7-2,5.5c0,0,2,0,4.5,0
		C385.3,139.9,387.3,139.9,387.3,139.9 M371.3,149.9l5-13l5-13h3.2l0.1,0.3c0.4,1,9.9,25.7,9.9,25.7c0,0-0.8,0-1.7,0h-1.7l-1.4-3.6
		l-1.4-3.6h-11l0,0.1c0,0.1-0.6,1.7-1.3,3.6l-1.3,3.5H373C371.7,149.9,371.3,149.9,371.3,149.9z M460.6,138.6c0-1.5-0.6-3.2-1.5-4
		c-0.3-0.3-0.7-0.6-1.1-0.7c-0.4-0.2-0.8-0.3-1.3-0.4c-0.4-0.1-1.3,0-1.8,0c-0.5,0.1-0.9,0.2-1.3,0.5c-0.4,0.2-0.8,0.5-1.1,0.8
		c-0.7,0.7-1.3,1.6-1.6,2.6c-0.1,0.4-0.3,1-0.3,1.3l0,0.2h10.1L460.6,138.6L460.6,138.6z M454.9,150.4c-1.3-0.1-2.4-0.5-3.5-1.1
		c-2.2-1.3-3.5-3.6-3.8-6.6c-0.1-1.1-0.1-2.5,0-3.4c0.2-2,1-4,2.2-5.4c0.3-0.4,0.9-1,1.3-1.3c1-0.8,2.1-1.3,3.3-1.6
		c0.7-0.2,1.9-0.2,2.7-0.2c1.9,0.2,3.6,1.1,4.8,2.4c1.2,1.4,1.8,3.4,1.9,5.8c0,0.5,0,1,0,1.5l0,0.8l-13.2,0v0.3
		c0,0.9,0.2,1.9,0.6,2.8c0.3,0.7,0.9,1.6,1.3,2c0.5,0.4,1,0.7,1.6,1c0.6,0.2,1.2,0.4,1.8,0.4c0.5,0,1.7,0,2.2-0.1
		c1.5-0.2,3-0.8,4.1-1.7c0.1-0.1,0.3-0.2,0.3-0.2c0,0,0,0.2,0,1.4v1.4l-0.3,0.2c-1.4,0.8-2.8,1.3-4.4,1.5
		C457.2,150.4,455.4,150.4,454.9,150.4L454.9,150.4z M420.4,150.4c-3.4-0.2-5.4-2.2-5.9-5.8c-0.1-1-0.1-1-0.2-7.2l0-6h3l0,5.8
		c0,5.3,0,5.9,0.1,6.3c0.2,1.5,0.6,2.5,1.3,3.2c0.6,0.6,1.2,0.9,2.1,1.1c0.4,0.1,1.6,0.1,2,0c0.4-0.1,0.8-0.2,1.2-0.4
		c0.4-0.2,0.7-0.5,1.1-0.8c0.7-0.7,1.3-1.8,1.5-3l0.1-0.4l0-5.9l0-5.9h3.1v18.5h-3v-1.5c0-1,0-1.5,0-1.5c-0.1,0.1-0.1,0.2-0.2,0.3
		c-0.3,0.5-0.6,0.9-1,1.3c-0.4,0.4-0.8,0.7-1.3,1C423.1,150.3,422,150.5,420.4,150.4z"/>
	<g>
		<defs>
			<path id="SVGID_00000012467459222655687830000014982389445568875405_" d="M327.7,110.9h15.2l-15.8,46.7c-0.1,0.2-0.2,0.5-0.3,0.7
				c-0.2,0.2-0.3,0.4-0.5,0.5c-0.2,0.1-0.4,0.3-0.7,0.3c-0.2,0.1-0.5,0.1-0.7,0.1H313c-0.4,0-0.8-0.1-1.1-0.3
				c-0.3-0.2-0.6-0.4-0.9-0.7c-0.2-0.3-0.4-0.7-0.4-1.1c-0.1-0.4,0-0.8,0.1-1.1l14.7-43.5c0.1-0.2,0.2-0.5,0.3-0.7
				c0.2-0.2,0.3-0.4,0.5-0.5c0.2-0.1,0.4-0.3,0.7-0.3C327.2,110.9,327.4,110.9,327.7,110.9L327.7,110.9"/>
		</defs>
		<clipPath id="SVGID_00000168080301720964718280000016974525017754715310_">
			<use xlink:href="#SVGID_00000012467459222655687830000014982389445568875405_"  style="overflow:visible;"/>
		</clipPath>
		<g style="clip-path:url(#SVGID_00000168080301720964718280000016974525017754715310_);">
			<defs>
				<rect id="SVGID_00000119796607971174647770000004060123067349054138_" x="310.5" y="110.9" width="32.4" height="48.4"/>
			</defs>
			<clipPath id="SVGID_00000166671163257512235270000008423161419649161380_">
				<use xlink:href="#SVGID_00000119796607971174647770000004060123067349054138_"  style="overflow:visible;"/>
			</clipPath>
			<g style="clip-path:url(#SVGID_00000166671163257512235270000008423161419649161380_);">
				
					<image style="overflow:visible;" width="469" height="701" xlink:href="911BF706.jpg"  transform="matrix(6.902389e-02 0 0 6.902389e-02 310.5221 110.8839)">
				</image>
			</g>
		</g>
	</g>
	<path class="st60" d="M349.8,142.2h-24.1c-0.1,0-0.2,0-0.3,0c-0.1,0-0.2,0.1-0.3,0.1c-0.1,0.1-0.2,0.1-0.2,0.2
		c-0.1,0.1-0.1,0.2-0.2,0.3c0,0.1-0.1,0.2-0.1,0.3c0,0.1,0,0.2,0,0.3c0,0.1,0.1,0.2,0.1,0.3c0.1,0.1,0.1,0.2,0.2,0.3l15.5,14.4
		c0.2,0.2,0.5,0.4,0.8,0.5c0.3,0.1,0.6,0.2,0.9,0.2h13.6L349.8,142.2"/>
	<g>
		<defs>
			<path id="SVGID_00000160152781883660371470000003561721284043488942_" d="M347.1,112.5c-0.1-0.2-0.2-0.5-0.3-0.7
				c-0.2-0.2-0.3-0.4-0.5-0.5c-0.2-0.1-0.4-0.3-0.7-0.3c-0.2-0.1-0.5-0.1-0.7-0.1h-16.9c0.3,0,0.5,0,0.7,0.1
				c0.2,0.1,0.5,0.2,0.7,0.3c0.2,0.1,0.4,0.3,0.5,0.5c0.2,0.2,0.3,0.4,0.3,0.7l14.7,43.5c0,0.1,0.1,0.2,0.1,0.3c0,0.1,0,0.2,0,0.3
				c0,0.1,0,0.2,0,0.3c0,0.1,0,0.2,0,0.3c0,0.1,0,0.2-0.1,0.3c0,0.1-0.1,0.2-0.1,0.3c0,0.1-0.1,0.2-0.1,0.3c0,0.1-0.1,0.2-0.2,0.2
				c-0.1,0.1-0.1,0.2-0.2,0.2c-0.1,0.1-0.1,0.1-0.2,0.2c-0.1,0.1-0.1,0.1-0.2,0.2s-0.2,0.1-0.2,0.1c-0.1,0-0.2,0.1-0.3,0.1
				c-0.1,0-0.2,0.1-0.3,0.1c-0.1,0-0.2,0-0.3,0.1c-0.1,0-0.2,0-0.3,0h16.9c0.1,0,0.2,0,0.3,0c0.1,0,0.2,0,0.3-0.1
				c0.1,0,0.2-0.1,0.3-0.1c0.1,0,0.2-0.1,0.3-0.1c0.1,0,0.2-0.1,0.2-0.1c0.1-0.1,0.2-0.1,0.2-0.2c0.1-0.1,0.1-0.1,0.2-0.2
				s0.1-0.1,0.2-0.2c0.1-0.1,0.1-0.2,0.2-0.2c0-0.1,0.1-0.2,0.1-0.3s0.1-0.2,0.1-0.3c0-0.1,0-0.2,0.1-0.3c0-0.1,0-0.2,0-0.3
				c0-0.1,0-0.2,0-0.3c0-0.1,0-0.2,0-0.3c0-0.1,0-0.2-0.1-0.3L347.1,112.5"/>
		</defs>
		<clipPath id="SVGID_00000043421716078478982440000006939901381382533001_">
			<use xlink:href="#SVGID_00000160152781883660371470000003561721284043488942_"  style="overflow:visible;"/>
		</clipPath>
		<g style="clip-path:url(#SVGID_00000043421716078478982440000006939901381382533001_);">
			<defs>
				<rect id="SVGID_00000161601145787710818350000006752628141602498730_" x="327.8" y="110.9" width="34.1" height="48.4"/>
			</defs>
			<clipPath id="SVGID_00000018941495922948786590000010279456242124349600_">
				<use xlink:href="#SVGID_00000161601145787710818350000006752628141602498730_"  style="overflow:visible;"/>
			</clipPath>
			<g style="clip-path:url(#SVGID_00000018941495922948786590000010279456242124349600_);">
				
					<image style="overflow:visible;" width="494" height="701" xlink:href="911BF70A.jpg"  transform="matrix(6.902389e-02 0 0 6.902389e-02 327.8471 110.8839)">
				</image>
			</g>
		</g>
	</g>
</g>
</svg>
